<?xml version="1.0" encoding="utf-8" standalone="no"?>
<!DOCTYPE svg PUBLIC "-//W3C//DTD SVG 1.1//EN"
  "http://www.w3.org/Graphics/SVG/1.1/DTD/svg11.dtd">
<!-- Created with matplotlib (https://matplotlib.org/) -->
<svg height="345.6pt" version="1.1" viewBox="0 0 460.8 345.6" width="460.8pt" xmlns="http://www.w3.org/2000/svg" xmlns:xlink="http://www.w3.org/1999/xlink">
 <defs>
  <style type="text/css">
*{stroke-linecap:butt;stroke-linejoin:round;}
  </style>
 </defs>
 <g id="figure_1">
  <g id="patch_1">
   <path d="M 0 345.6 
L 460.8 345.6 
L 460.8 0 
L 0 0 
z
" style="fill:#ffffff;"/>
  </g>
  <g id="axes_1">
   <g id="patch_2">
    <path d="M 57.6 307.584 
L 414.72 307.584 
L 414.72 41.472 
L 57.6 41.472 
z
" style="fill:#ffffff;"/>
   </g>
   <g id="matplotlib.axis_1">
    <g id="xtick_1">
     <g id="line2d_1">
      <defs>
       <path d="M 0 0 
L 0 3.5 
" id="me20181d223" style="stroke:#000000;stroke-width:0.8;"/>
      </defs>
      <g>
       <use style="stroke:#000000;stroke-width:0.8;" x="73.832727" xlink:href="#me20181d223" y="307.584"/>
      </g>
     </g>
     <g id="text_1">
      <!-- 0 -->
      <defs>
       <path d="M 31.78125 66.40625 
Q 24.171875 66.40625 20.328125 58.90625 
Q 16.5 51.421875 16.5 36.375 
Q 16.5 21.390625 20.328125 13.890625 
Q 24.171875 6.390625 31.78125 6.390625 
Q 39.453125 6.390625 43.28125 13.890625 
Q 47.125 21.390625 47.125 36.375 
Q 47.125 51.421875 43.28125 58.90625 
Q 39.453125 66.40625 31.78125 66.40625 
z
M 31.78125 74.21875 
Q 44.046875 74.21875 50.515625 64.515625 
Q 56.984375 54.828125 56.984375 36.375 
Q 56.984375 17.96875 50.515625 8.265625 
Q 44.046875 -1.421875 31.78125 -1.421875 
Q 19.53125 -1.421875 13.0625 8.265625 
Q 6.59375 17.96875 6.59375 36.375 
Q 6.59375 54.828125 13.0625 64.515625 
Q 19.53125 74.21875 31.78125 74.21875 
z
" id="DejaVuSans-48"/>
      </defs>
      <g transform="translate(70.651477 322.182437)scale(0.1 -0.1)">
       <use xlink:href="#DejaVuSans-48"/>
      </g>
     </g>
    </g>
    <g id="xtick_2">
     <g id="line2d_2">
      <g>
       <use style="stroke:#000000;stroke-width:0.8;" x="139.419504" xlink:href="#me20181d223" y="307.584"/>
      </g>
     </g>
     <g id="text_2">
      <!-- 20 -->
      <defs>
       <path d="M 19.1875 8.296875 
L 53.609375 8.296875 
L 53.609375 0 
L 7.328125 0 
L 7.328125 8.296875 
Q 12.9375 14.109375 22.625 23.890625 
Q 32.328125 33.6875 34.8125 36.53125 
Q 39.546875 41.84375 41.421875 45.53125 
Q 43.3125 49.21875 43.3125 52.78125 
Q 43.3125 58.59375 39.234375 62.25 
Q 35.15625 65.921875 28.609375 65.921875 
Q 23.96875 65.921875 18.8125 64.3125 
Q 13.671875 62.703125 7.8125 59.421875 
L 7.8125 69.390625 
Q 13.765625 71.78125 18.9375 73 
Q 24.125 74.21875 28.421875 74.21875 
Q 39.75 74.21875 46.484375 68.546875 
Q 53.21875 62.890625 53.21875 53.421875 
Q 53.21875 48.921875 51.53125 44.890625 
Q 49.859375 40.875 45.40625 35.40625 
Q 44.1875 33.984375 37.640625 27.21875 
Q 31.109375 20.453125 19.1875 8.296875 
z
" id="DejaVuSans-50"/>
      </defs>
      <g transform="translate(133.057004 322.182437)scale(0.1 -0.1)">
       <use xlink:href="#DejaVuSans-50"/>
       <use x="63.623047" xlink:href="#DejaVuSans-48"/>
      </g>
     </g>
    </g>
    <g id="xtick_3">
     <g id="line2d_3">
      <g>
       <use style="stroke:#000000;stroke-width:0.8;" x="205.006281" xlink:href="#me20181d223" y="307.584"/>
      </g>
     </g>
     <g id="text_3">
      <!-- 40 -->
      <defs>
       <path d="M 37.796875 64.3125 
L 12.890625 25.390625 
L 37.796875 25.390625 
z
M 35.203125 72.90625 
L 47.609375 72.90625 
L 47.609375 25.390625 
L 58.015625 25.390625 
L 58.015625 17.1875 
L 47.609375 17.1875 
L 47.609375 0 
L 37.796875 0 
L 37.796875 17.1875 
L 4.890625 17.1875 
L 4.890625 26.703125 
z
" id="DejaVuSans-52"/>
      </defs>
      <g transform="translate(198.643781 322.182437)scale(0.1 -0.1)">
       <use xlink:href="#DejaVuSans-52"/>
       <use x="63.623047" xlink:href="#DejaVuSans-48"/>
      </g>
     </g>
    </g>
    <g id="xtick_4">
     <g id="line2d_4">
      <g>
       <use style="stroke:#000000;stroke-width:0.8;" x="270.593058" xlink:href="#me20181d223" y="307.584"/>
      </g>
     </g>
     <g id="text_4">
      <!-- 60 -->
      <defs>
       <path d="M 33.015625 40.375 
Q 26.375 40.375 22.484375 35.828125 
Q 18.609375 31.296875 18.609375 23.390625 
Q 18.609375 15.53125 22.484375 10.953125 
Q 26.375 6.390625 33.015625 6.390625 
Q 39.65625 6.390625 43.53125 10.953125 
Q 47.40625 15.53125 47.40625 23.390625 
Q 47.40625 31.296875 43.53125 35.828125 
Q 39.65625 40.375 33.015625 40.375 
z
M 52.59375 71.296875 
L 52.59375 62.3125 
Q 48.875 64.0625 45.09375 64.984375 
Q 41.3125 65.921875 37.59375 65.921875 
Q 27.828125 65.921875 22.671875 59.328125 
Q 17.53125 52.734375 16.796875 39.40625 
Q 19.671875 43.65625 24.015625 45.921875 
Q 28.375 48.1875 33.59375 48.1875 
Q 44.578125 48.1875 50.953125 41.515625 
Q 57.328125 34.859375 57.328125 23.390625 
Q 57.328125 12.15625 50.6875 5.359375 
Q 44.046875 -1.421875 33.015625 -1.421875 
Q 20.359375 -1.421875 13.671875 8.265625 
Q 6.984375 17.96875 6.984375 36.375 
Q 6.984375 53.65625 15.1875 63.9375 
Q 23.390625 74.21875 37.203125 74.21875 
Q 40.921875 74.21875 44.703125 73.484375 
Q 48.484375 72.75 52.59375 71.296875 
z
" id="DejaVuSans-54"/>
      </defs>
      <g transform="translate(264.230558 322.182437)scale(0.1 -0.1)">
       <use xlink:href="#DejaVuSans-54"/>
       <use x="63.623047" xlink:href="#DejaVuSans-48"/>
      </g>
     </g>
    </g>
    <g id="xtick_5">
     <g id="line2d_5">
      <g>
       <use style="stroke:#000000;stroke-width:0.8;" x="336.179835" xlink:href="#me20181d223" y="307.584"/>
      </g>
     </g>
     <g id="text_5">
      <!-- 80 -->
      <defs>
       <path d="M 31.78125 34.625 
Q 24.75 34.625 20.71875 30.859375 
Q 16.703125 27.09375 16.703125 20.515625 
Q 16.703125 13.921875 20.71875 10.15625 
Q 24.75 6.390625 31.78125 6.390625 
Q 38.8125 6.390625 42.859375 10.171875 
Q 46.921875 13.96875 46.921875 20.515625 
Q 46.921875 27.09375 42.890625 30.859375 
Q 38.875 34.625 31.78125 34.625 
z
M 21.921875 38.8125 
Q 15.578125 40.375 12.03125 44.71875 
Q 8.5 49.078125 8.5 55.328125 
Q 8.5 64.0625 14.71875 69.140625 
Q 20.953125 74.21875 31.78125 74.21875 
Q 42.671875 74.21875 48.875 69.140625 
Q 55.078125 64.0625 55.078125 55.328125 
Q 55.078125 49.078125 51.53125 44.71875 
Q 48 40.375 41.703125 38.8125 
Q 48.828125 37.15625 52.796875 32.3125 
Q 56.78125 27.484375 56.78125 20.515625 
Q 56.78125 9.90625 50.3125 4.234375 
Q 43.84375 -1.421875 31.78125 -1.421875 
Q 19.734375 -1.421875 13.25 4.234375 
Q 6.78125 9.90625 6.78125 20.515625 
Q 6.78125 27.484375 10.78125 32.3125 
Q 14.796875 37.15625 21.921875 38.8125 
z
M 18.3125 54.390625 
Q 18.3125 48.734375 21.84375 45.5625 
Q 25.390625 42.390625 31.78125 42.390625 
Q 38.140625 42.390625 41.71875 45.5625 
Q 45.3125 48.734375 45.3125 54.390625 
Q 45.3125 60.0625 41.71875 63.234375 
Q 38.140625 66.40625 31.78125 66.40625 
Q 25.390625 66.40625 21.84375 63.234375 
Q 18.3125 60.0625 18.3125 54.390625 
z
" id="DejaVuSans-56"/>
      </defs>
      <g transform="translate(329.817335 322.182437)scale(0.1 -0.1)">
       <use xlink:href="#DejaVuSans-56"/>
       <use x="63.623047" xlink:href="#DejaVuSans-48"/>
      </g>
     </g>
    </g>
    <g id="xtick_6">
     <g id="line2d_6">
      <g>
       <use style="stroke:#000000;stroke-width:0.8;" x="401.766612" xlink:href="#me20181d223" y="307.584"/>
      </g>
     </g>
     <g id="text_6">
      <!-- 100 -->
      <defs>
       <path d="M 12.40625 8.296875 
L 28.515625 8.296875 
L 28.515625 63.921875 
L 10.984375 60.40625 
L 10.984375 69.390625 
L 28.421875 72.90625 
L 38.28125 72.90625 
L 38.28125 8.296875 
L 54.390625 8.296875 
L 54.390625 0 
L 12.40625 0 
z
" id="DejaVuSans-49"/>
      </defs>
      <g transform="translate(392.222862 322.182437)scale(0.1 -0.1)">
       <use xlink:href="#DejaVuSans-49"/>
       <use x="63.623047" xlink:href="#DejaVuSans-48"/>
       <use x="127.246094" xlink:href="#DejaVuSans-48"/>
      </g>
     </g>
    </g>
    <g id="text_7">
     <!-- Period of Change -->
     <defs>
      <path d="M 19.671875 64.796875 
L 19.671875 37.40625 
L 32.078125 37.40625 
Q 38.96875 37.40625 42.71875 40.96875 
Q 46.484375 44.53125 46.484375 51.125 
Q 46.484375 57.671875 42.71875 61.234375 
Q 38.96875 64.796875 32.078125 64.796875 
z
M 9.8125 72.90625 
L 32.078125 72.90625 
Q 44.34375 72.90625 50.609375 67.359375 
Q 56.890625 61.8125 56.890625 51.125 
Q 56.890625 40.328125 50.609375 34.8125 
Q 44.34375 29.296875 32.078125 29.296875 
L 19.671875 29.296875 
L 19.671875 0 
L 9.8125 0 
z
" id="DejaVuSans-80"/>
      <path d="M 56.203125 29.59375 
L 56.203125 25.203125 
L 14.890625 25.203125 
Q 15.484375 15.921875 20.484375 11.0625 
Q 25.484375 6.203125 34.421875 6.203125 
Q 39.59375 6.203125 44.453125 7.46875 
Q 49.3125 8.734375 54.109375 11.28125 
L 54.109375 2.78125 
Q 49.265625 0.734375 44.1875 -0.34375 
Q 39.109375 -1.421875 33.890625 -1.421875 
Q 20.796875 -1.421875 13.15625 6.1875 
Q 5.515625 13.8125 5.515625 26.8125 
Q 5.515625 40.234375 12.765625 48.109375 
Q 20.015625 56 32.328125 56 
Q 43.359375 56 49.78125 48.890625 
Q 56.203125 41.796875 56.203125 29.59375 
z
M 47.21875 32.234375 
Q 47.125 39.59375 43.09375 43.984375 
Q 39.0625 48.390625 32.421875 48.390625 
Q 24.90625 48.390625 20.390625 44.140625 
Q 15.875 39.890625 15.1875 32.171875 
z
" id="DejaVuSans-101"/>
      <path d="M 41.109375 46.296875 
Q 39.59375 47.171875 37.8125 47.578125 
Q 36.03125 48 33.890625 48 
Q 26.265625 48 22.1875 43.046875 
Q 18.109375 38.09375 18.109375 28.8125 
L 18.109375 0 
L 9.078125 0 
L 9.078125 54.6875 
L 18.109375 54.6875 
L 18.109375 46.1875 
Q 20.953125 51.171875 25.484375 53.578125 
Q 30.03125 56 36.53125 56 
Q 37.453125 56 38.578125 55.875 
Q 39.703125 55.765625 41.0625 55.515625 
z
" id="DejaVuSans-114"/>
      <path d="M 9.421875 54.6875 
L 18.40625 54.6875 
L 18.40625 0 
L 9.421875 0 
z
M 9.421875 75.984375 
L 18.40625 75.984375 
L 18.40625 64.59375 
L 9.421875 64.59375 
z
" id="DejaVuSans-105"/>
      <path d="M 30.609375 48.390625 
Q 23.390625 48.390625 19.1875 42.75 
Q 14.984375 37.109375 14.984375 27.296875 
Q 14.984375 17.484375 19.15625 11.84375 
Q 23.34375 6.203125 30.609375 6.203125 
Q 37.796875 6.203125 41.984375 11.859375 
Q 46.1875 17.53125 46.1875 27.296875 
Q 46.1875 37.015625 41.984375 42.703125 
Q 37.796875 48.390625 30.609375 48.390625 
z
M 30.609375 56 
Q 42.328125 56 49.015625 48.375 
Q 55.71875 40.765625 55.71875 27.296875 
Q 55.71875 13.875 49.015625 6.21875 
Q 42.328125 -1.421875 30.609375 -1.421875 
Q 18.84375 -1.421875 12.171875 6.21875 
Q 5.515625 13.875 5.515625 27.296875 
Q 5.515625 40.765625 12.171875 48.375 
Q 18.84375 56 30.609375 56 
z
" id="DejaVuSans-111"/>
      <path d="M 45.40625 46.390625 
L 45.40625 75.984375 
L 54.390625 75.984375 
L 54.390625 0 
L 45.40625 0 
L 45.40625 8.203125 
Q 42.578125 3.328125 38.25 0.953125 
Q 33.9375 -1.421875 27.875 -1.421875 
Q 17.96875 -1.421875 11.734375 6.484375 
Q 5.515625 14.40625 5.515625 27.296875 
Q 5.515625 40.1875 11.734375 48.09375 
Q 17.96875 56 27.875 56 
Q 33.9375 56 38.25 53.625 
Q 42.578125 51.265625 45.40625 46.390625 
z
M 14.796875 27.296875 
Q 14.796875 17.390625 18.875 11.75 
Q 22.953125 6.109375 30.078125 6.109375 
Q 37.203125 6.109375 41.296875 11.75 
Q 45.40625 17.390625 45.40625 27.296875 
Q 45.40625 37.203125 41.296875 42.84375 
Q 37.203125 48.484375 30.078125 48.484375 
Q 22.953125 48.484375 18.875 42.84375 
Q 14.796875 37.203125 14.796875 27.296875 
z
" id="DejaVuSans-100"/>
      <path id="DejaVuSans-32"/>
      <path d="M 37.109375 75.984375 
L 37.109375 68.5 
L 28.515625 68.5 
Q 23.6875 68.5 21.796875 66.546875 
Q 19.921875 64.59375 19.921875 59.515625 
L 19.921875 54.6875 
L 34.71875 54.6875 
L 34.71875 47.703125 
L 19.921875 47.703125 
L 19.921875 0 
L 10.890625 0 
L 10.890625 47.703125 
L 2.296875 47.703125 
L 2.296875 54.6875 
L 10.890625 54.6875 
L 10.890625 58.5 
Q 10.890625 67.625 15.140625 71.796875 
Q 19.390625 75.984375 28.609375 75.984375 
z
" id="DejaVuSans-102"/>
      <path d="M 64.40625 67.28125 
L 64.40625 56.890625 
Q 59.421875 61.53125 53.78125 63.8125 
Q 48.140625 66.109375 41.796875 66.109375 
Q 29.296875 66.109375 22.65625 58.46875 
Q 16.015625 50.828125 16.015625 36.375 
Q 16.015625 21.96875 22.65625 14.328125 
Q 29.296875 6.6875 41.796875 6.6875 
Q 48.140625 6.6875 53.78125 8.984375 
Q 59.421875 11.28125 64.40625 15.921875 
L 64.40625 5.609375 
Q 59.234375 2.09375 53.4375 0.328125 
Q 47.65625 -1.421875 41.21875 -1.421875 
Q 24.65625 -1.421875 15.125 8.703125 
Q 5.609375 18.84375 5.609375 36.375 
Q 5.609375 53.953125 15.125 64.078125 
Q 24.65625 74.21875 41.21875 74.21875 
Q 47.75 74.21875 53.53125 72.484375 
Q 59.328125 70.75 64.40625 67.28125 
z
" id="DejaVuSans-67"/>
      <path d="M 54.890625 33.015625 
L 54.890625 0 
L 45.90625 0 
L 45.90625 32.71875 
Q 45.90625 40.484375 42.875 44.328125 
Q 39.84375 48.1875 33.796875 48.1875 
Q 26.515625 48.1875 22.3125 43.546875 
Q 18.109375 38.921875 18.109375 30.90625 
L 18.109375 0 
L 9.078125 0 
L 9.078125 75.984375 
L 18.109375 75.984375 
L 18.109375 46.1875 
Q 21.34375 51.125 25.703125 53.5625 
Q 30.078125 56 35.796875 56 
Q 45.21875 56 50.046875 50.171875 
Q 54.890625 44.34375 54.890625 33.015625 
z
" id="DejaVuSans-104"/>
      <path d="M 34.28125 27.484375 
Q 23.390625 27.484375 19.1875 25 
Q 14.984375 22.515625 14.984375 16.5 
Q 14.984375 11.71875 18.140625 8.90625 
Q 21.296875 6.109375 26.703125 6.109375 
Q 34.1875 6.109375 38.703125 11.40625 
Q 43.21875 16.703125 43.21875 25.484375 
L 43.21875 27.484375 
z
M 52.203125 31.203125 
L 52.203125 0 
L 43.21875 0 
L 43.21875 8.296875 
Q 40.140625 3.328125 35.546875 0.953125 
Q 30.953125 -1.421875 24.3125 -1.421875 
Q 15.921875 -1.421875 10.953125 3.296875 
Q 6 8.015625 6 15.921875 
Q 6 25.140625 12.171875 29.828125 
Q 18.359375 34.515625 30.609375 34.515625 
L 43.21875 34.515625 
L 43.21875 35.40625 
Q 43.21875 41.609375 39.140625 45 
Q 35.0625 48.390625 27.6875 48.390625 
Q 23 48.390625 18.546875 47.265625 
Q 14.109375 46.140625 10.015625 43.890625 
L 10.015625 52.203125 
Q 14.9375 54.109375 19.578125 55.046875 
Q 24.21875 56 28.609375 56 
Q 40.484375 56 46.34375 49.84375 
Q 52.203125 43.703125 52.203125 31.203125 
z
" id="DejaVuSans-97"/>
      <path d="M 54.890625 33.015625 
L 54.890625 0 
L 45.90625 0 
L 45.90625 32.71875 
Q 45.90625 40.484375 42.875 44.328125 
Q 39.84375 48.1875 33.796875 48.1875 
Q 26.515625 48.1875 22.3125 43.546875 
Q 18.109375 38.921875 18.109375 30.90625 
L 18.109375 0 
L 9.078125 0 
L 9.078125 54.6875 
L 18.109375 54.6875 
L 18.109375 46.1875 
Q 21.34375 51.125 25.703125 53.5625 
Q 30.078125 56 35.796875 56 
Q 45.21875 56 50.046875 50.171875 
Q 54.890625 44.34375 54.890625 33.015625 
z
" id="DejaVuSans-110"/>
      <path d="M 45.40625 27.984375 
Q 45.40625 37.75 41.375 43.109375 
Q 37.359375 48.484375 30.078125 48.484375 
Q 22.859375 48.484375 18.828125 43.109375 
Q 14.796875 37.75 14.796875 27.984375 
Q 14.796875 18.265625 18.828125 12.890625 
Q 22.859375 7.515625 30.078125 7.515625 
Q 37.359375 7.515625 41.375 12.890625 
Q 45.40625 18.265625 45.40625 27.984375 
z
M 54.390625 6.78125 
Q 54.390625 -7.171875 48.1875 -13.984375 
Q 42 -20.796875 29.203125 -20.796875 
Q 24.46875 -20.796875 20.265625 -20.09375 
Q 16.0625 -19.390625 12.109375 -17.921875 
L 12.109375 -9.1875 
Q 16.0625 -11.328125 19.921875 -12.34375 
Q 23.78125 -13.375 27.78125 -13.375 
Q 36.625 -13.375 41.015625 -8.765625 
Q 45.40625 -4.15625 45.40625 5.171875 
L 45.40625 9.625 
Q 42.625 4.78125 38.28125 2.390625 
Q 33.9375 0 27.875 0 
Q 17.828125 0 11.671875 7.65625 
Q 5.515625 15.328125 5.515625 27.984375 
Q 5.515625 40.671875 11.671875 48.328125 
Q 17.828125 56 27.875 56 
Q 33.9375 56 38.28125 53.609375 
Q 42.625 51.21875 45.40625 46.390625 
L 45.40625 54.6875 
L 54.390625 54.6875 
z
" id="DejaVuSans-103"/>
     </defs>
     <g transform="translate(193.430312 335.860562)scale(0.1 -0.1)">
      <use xlink:href="#DejaVuSans-80"/>
      <use x="56.677734" xlink:href="#DejaVuSans-101"/>
      <use x="118.201172" xlink:href="#DejaVuSans-114"/>
      <use x="159.314453" xlink:href="#DejaVuSans-105"/>
      <use x="187.097656" xlink:href="#DejaVuSans-111"/>
      <use x="248.279297" xlink:href="#DejaVuSans-100"/>
      <use x="311.755859" xlink:href="#DejaVuSans-32"/>
      <use x="343.542969" xlink:href="#DejaVuSans-111"/>
      <use x="404.724609" xlink:href="#DejaVuSans-102"/>
      <use x="439.929688" xlink:href="#DejaVuSans-32"/>
      <use x="471.716797" xlink:href="#DejaVuSans-67"/>
      <use x="541.541016" xlink:href="#DejaVuSans-104"/>
      <use x="604.919922" xlink:href="#DejaVuSans-97"/>
      <use x="666.199219" xlink:href="#DejaVuSans-110"/>
      <use x="729.578125" xlink:href="#DejaVuSans-103"/>
      <use x="793.054688" xlink:href="#DejaVuSans-101"/>
     </g>
    </g>
   </g>
   <g id="matplotlib.axis_2">
    <g id="ytick_1">
     <g id="line2d_7">
      <defs>
       <path d="M 0 0 
L -3.5 0 
" id="m9805ca26d3" style="stroke:#000000;stroke-width:0.8;"/>
      </defs>
      <g>
       <use style="stroke:#000000;stroke-width:0.8;" x="57.6" xlink:href="#m9805ca26d3" y="307.584"/>
      </g>
     </g>
     <g id="text_8">
      <!-- 0 -->
      <g style="fill:#0000ff;" transform="translate(44.2375 311.383219)scale(0.1 -0.1)">
       <use xlink:href="#DejaVuSans-48"/>
      </g>
     </g>
    </g>
    <g id="ytick_2">
     <g id="line2d_8">
      <g>
       <use style="stroke:#000000;stroke-width:0.8;" x="57.6" xlink:href="#m9805ca26d3" y="269.568"/>
      </g>
     </g>
     <g id="text_9">
      <!-- 20 -->
      <g style="fill:#0000ff;" transform="translate(37.875 273.367219)scale(0.1 -0.1)">
       <use xlink:href="#DejaVuSans-50"/>
       <use x="63.623047" xlink:href="#DejaVuSans-48"/>
      </g>
     </g>
    </g>
    <g id="ytick_3">
     <g id="line2d_9">
      <g>
       <use style="stroke:#000000;stroke-width:0.8;" x="57.6" xlink:href="#m9805ca26d3" y="231.552"/>
      </g>
     </g>
     <g id="text_10">
      <!-- 40 -->
      <g style="fill:#0000ff;" transform="translate(37.875 235.351219)scale(0.1 -0.1)">
       <use xlink:href="#DejaVuSans-52"/>
       <use x="63.623047" xlink:href="#DejaVuSans-48"/>
      </g>
     </g>
    </g>
    <g id="ytick_4">
     <g id="line2d_10">
      <g>
       <use style="stroke:#000000;stroke-width:0.8;" x="57.6" xlink:href="#m9805ca26d3" y="193.536"/>
      </g>
     </g>
     <g id="text_11">
      <!-- 60 -->
      <g style="fill:#0000ff;" transform="translate(37.875 197.335219)scale(0.1 -0.1)">
       <use xlink:href="#DejaVuSans-54"/>
       <use x="63.623047" xlink:href="#DejaVuSans-48"/>
      </g>
     </g>
    </g>
    <g id="ytick_5">
     <g id="line2d_11">
      <g>
       <use style="stroke:#000000;stroke-width:0.8;" x="57.6" xlink:href="#m9805ca26d3" y="155.52"/>
      </g>
     </g>
     <g id="text_12">
      <!-- 80 -->
      <g style="fill:#0000ff;" transform="translate(37.875 159.319219)scale(0.1 -0.1)">
       <use xlink:href="#DejaVuSans-56"/>
       <use x="63.623047" xlink:href="#DejaVuSans-48"/>
      </g>
     </g>
    </g>
    <g id="ytick_6">
     <g id="line2d_12">
      <g>
       <use style="stroke:#000000;stroke-width:0.8;" x="57.6" xlink:href="#m9805ca26d3" y="117.504"/>
      </g>
     </g>
     <g id="text_13">
      <!-- 100 -->
      <g style="fill:#0000ff;" transform="translate(31.5125 121.303219)scale(0.1 -0.1)">
       <use xlink:href="#DejaVuSans-49"/>
       <use x="63.623047" xlink:href="#DejaVuSans-48"/>
       <use x="127.246094" xlink:href="#DejaVuSans-48"/>
      </g>
     </g>
    </g>
    <g id="ytick_7">
     <g id="line2d_13">
      <g>
       <use style="stroke:#000000;stroke-width:0.8;" x="57.6" xlink:href="#m9805ca26d3" y="79.488"/>
      </g>
     </g>
     <g id="text_14">
      <!-- 120 -->
      <g style="fill:#0000ff;" transform="translate(31.5125 83.287219)scale(0.1 -0.1)">
       <use xlink:href="#DejaVuSans-49"/>
       <use x="63.623047" xlink:href="#DejaVuSans-50"/>
       <use x="127.246094" xlink:href="#DejaVuSans-48"/>
      </g>
     </g>
    </g>
    <g id="ytick_8">
     <g id="line2d_14">
      <g>
       <use style="stroke:#000000;stroke-width:0.8;" x="57.6" xlink:href="#m9805ca26d3" y="41.472"/>
      </g>
     </g>
     <g id="text_15">
      <!-- 140 -->
      <g style="fill:#0000ff;" transform="translate(31.5125 45.271219)scale(0.1 -0.1)">
       <use xlink:href="#DejaVuSans-49"/>
       <use x="63.623047" xlink:href="#DejaVuSans-52"/>
       <use x="127.246094" xlink:href="#DejaVuSans-48"/>
      </g>
     </g>
    </g>
    <g id="text_16">
     <!-- Number of SuperEdges -->
     <defs>
      <path d="M 9.8125 72.90625 
L 23.09375 72.90625 
L 55.421875 11.921875 
L 55.421875 72.90625 
L 64.984375 72.90625 
L 64.984375 0 
L 51.703125 0 
L 19.390625 60.984375 
L 19.390625 0 
L 9.8125 0 
z
" id="DejaVuSans-78"/>
      <path d="M 8.5 21.578125 
L 8.5 54.6875 
L 17.484375 54.6875 
L 17.484375 21.921875 
Q 17.484375 14.15625 20.5 10.265625 
Q 23.53125 6.390625 29.59375 6.390625 
Q 36.859375 6.390625 41.078125 11.03125 
Q 45.3125 15.671875 45.3125 23.6875 
L 45.3125 54.6875 
L 54.296875 54.6875 
L 54.296875 0 
L 45.3125 0 
L 45.3125 8.40625 
Q 42.046875 3.421875 37.71875 1 
Q 33.40625 -1.421875 27.6875 -1.421875 
Q 18.265625 -1.421875 13.375 4.4375 
Q 8.5 10.296875 8.5 21.578125 
z
M 31.109375 56 
z
" id="DejaVuSans-117"/>
      <path d="M 52 44.1875 
Q 55.375 50.25 60.0625 53.125 
Q 64.75 56 71.09375 56 
Q 79.640625 56 84.28125 50.015625 
Q 88.921875 44.046875 88.921875 33.015625 
L 88.921875 0 
L 79.890625 0 
L 79.890625 32.71875 
Q 79.890625 40.578125 77.09375 44.375 
Q 74.3125 48.1875 68.609375 48.1875 
Q 61.625 48.1875 57.5625 43.546875 
Q 53.515625 38.921875 53.515625 30.90625 
L 53.515625 0 
L 44.484375 0 
L 44.484375 32.71875 
Q 44.484375 40.625 41.703125 44.40625 
Q 38.921875 48.1875 33.109375 48.1875 
Q 26.21875 48.1875 22.15625 43.53125 
Q 18.109375 38.875 18.109375 30.90625 
L 18.109375 0 
L 9.078125 0 
L 9.078125 54.6875 
L 18.109375 54.6875 
L 18.109375 46.1875 
Q 21.1875 51.21875 25.484375 53.609375 
Q 29.78125 56 35.6875 56 
Q 41.65625 56 45.828125 52.96875 
Q 50 49.953125 52 44.1875 
z
" id="DejaVuSans-109"/>
      <path d="M 48.6875 27.296875 
Q 48.6875 37.203125 44.609375 42.84375 
Q 40.53125 48.484375 33.40625 48.484375 
Q 26.265625 48.484375 22.1875 42.84375 
Q 18.109375 37.203125 18.109375 27.296875 
Q 18.109375 17.390625 22.1875 11.75 
Q 26.265625 6.109375 33.40625 6.109375 
Q 40.53125 6.109375 44.609375 11.75 
Q 48.6875 17.390625 48.6875 27.296875 
z
M 18.109375 46.390625 
Q 20.953125 51.265625 25.265625 53.625 
Q 29.59375 56 35.59375 56 
Q 45.5625 56 51.78125 48.09375 
Q 58.015625 40.1875 58.015625 27.296875 
Q 58.015625 14.40625 51.78125 6.484375 
Q 45.5625 -1.421875 35.59375 -1.421875 
Q 29.59375 -1.421875 25.265625 0.953125 
Q 20.953125 3.328125 18.109375 8.203125 
L 18.109375 0 
L 9.078125 0 
L 9.078125 75.984375 
L 18.109375 75.984375 
z
" id="DejaVuSans-98"/>
      <path d="M 53.515625 70.515625 
L 53.515625 60.890625 
Q 47.90625 63.578125 42.921875 64.890625 
Q 37.9375 66.21875 33.296875 66.21875 
Q 25.25 66.21875 20.875 63.09375 
Q 16.5 59.96875 16.5 54.203125 
Q 16.5 49.359375 19.40625 46.890625 
Q 22.3125 44.4375 30.421875 42.921875 
L 36.375 41.703125 
Q 47.40625 39.59375 52.65625 34.296875 
Q 57.90625 29 57.90625 20.125 
Q 57.90625 9.515625 50.796875 4.046875 
Q 43.703125 -1.421875 29.984375 -1.421875 
Q 24.8125 -1.421875 18.96875 -0.25 
Q 13.140625 0.921875 6.890625 3.21875 
L 6.890625 13.375 
Q 12.890625 10.015625 18.65625 8.296875 
Q 24.421875 6.59375 29.984375 6.59375 
Q 38.421875 6.59375 43.015625 9.90625 
Q 47.609375 13.234375 47.609375 19.390625 
Q 47.609375 24.75 44.3125 27.78125 
Q 41.015625 30.8125 33.5 32.328125 
L 27.484375 33.5 
Q 16.453125 35.6875 11.515625 40.375 
Q 6.59375 45.0625 6.59375 53.421875 
Q 6.59375 63.09375 13.40625 68.65625 
Q 20.21875 74.21875 32.171875 74.21875 
Q 37.3125 74.21875 42.625 73.28125 
Q 47.953125 72.359375 53.515625 70.515625 
z
" id="DejaVuSans-83"/>
      <path d="M 18.109375 8.203125 
L 18.109375 -20.796875 
L 9.078125 -20.796875 
L 9.078125 54.6875 
L 18.109375 54.6875 
L 18.109375 46.390625 
Q 20.953125 51.265625 25.265625 53.625 
Q 29.59375 56 35.59375 56 
Q 45.5625 56 51.78125 48.09375 
Q 58.015625 40.1875 58.015625 27.296875 
Q 58.015625 14.40625 51.78125 6.484375 
Q 45.5625 -1.421875 35.59375 -1.421875 
Q 29.59375 -1.421875 25.265625 0.953125 
Q 20.953125 3.328125 18.109375 8.203125 
z
M 48.6875 27.296875 
Q 48.6875 37.203125 44.609375 42.84375 
Q 40.53125 48.484375 33.40625 48.484375 
Q 26.265625 48.484375 22.1875 42.84375 
Q 18.109375 37.203125 18.109375 27.296875 
Q 18.109375 17.390625 22.1875 11.75 
Q 26.265625 6.109375 33.40625 6.109375 
Q 40.53125 6.109375 44.609375 11.75 
Q 48.6875 17.390625 48.6875 27.296875 
z
" id="DejaVuSans-112"/>
      <path d="M 9.8125 72.90625 
L 55.90625 72.90625 
L 55.90625 64.59375 
L 19.671875 64.59375 
L 19.671875 43.015625 
L 54.390625 43.015625 
L 54.390625 34.71875 
L 19.671875 34.71875 
L 19.671875 8.296875 
L 56.78125 8.296875 
L 56.78125 0 
L 9.8125 0 
z
" id="DejaVuSans-69"/>
      <path d="M 44.28125 53.078125 
L 44.28125 44.578125 
Q 40.484375 46.53125 36.375 47.5 
Q 32.28125 48.484375 27.875 48.484375 
Q 21.1875 48.484375 17.84375 46.4375 
Q 14.5 44.390625 14.5 40.28125 
Q 14.5 37.15625 16.890625 35.375 
Q 19.28125 33.59375 26.515625 31.984375 
L 29.59375 31.296875 
Q 39.15625 29.25 43.1875 25.515625 
Q 47.21875 21.78125 47.21875 15.09375 
Q 47.21875 7.46875 41.1875 3.015625 
Q 35.15625 -1.421875 24.609375 -1.421875 
Q 20.21875 -1.421875 15.453125 -0.5625 
Q 10.6875 0.296875 5.421875 2 
L 5.421875 11.28125 
Q 10.40625 8.6875 15.234375 7.390625 
Q 20.0625 6.109375 24.8125 6.109375 
Q 31.15625 6.109375 34.5625 8.28125 
Q 37.984375 10.453125 37.984375 14.40625 
Q 37.984375 18.0625 35.515625 20.015625 
Q 33.0625 21.96875 24.703125 23.78125 
L 21.578125 24.515625 
Q 13.234375 26.265625 9.515625 29.90625 
Q 5.8125 33.546875 5.8125 39.890625 
Q 5.8125 47.609375 11.28125 51.796875 
Q 16.75 56 26.8125 56 
Q 31.78125 56 36.171875 55.265625 
Q 40.578125 54.546875 44.28125 53.078125 
z
" id="DejaVuSans-115"/>
     </defs>
     <g style="fill:#0000ff;" transform="translate(25.432812 232.449875)rotate(-90)scale(0.1 -0.1)">
      <use xlink:href="#DejaVuSans-78"/>
      <use x="74.804688" xlink:href="#DejaVuSans-117"/>
      <use x="138.183594" xlink:href="#DejaVuSans-109"/>
      <use x="235.595703" xlink:href="#DejaVuSans-98"/>
      <use x="299.072266" xlink:href="#DejaVuSans-101"/>
      <use x="360.595703" xlink:href="#DejaVuSans-114"/>
      <use x="401.708984" xlink:href="#DejaVuSans-32"/>
      <use x="433.496094" xlink:href="#DejaVuSans-111"/>
      <use x="494.677734" xlink:href="#DejaVuSans-102"/>
      <use x="529.882812" xlink:href="#DejaVuSans-32"/>
      <use x="561.669922" xlink:href="#DejaVuSans-83"/>
      <use x="625.146484" xlink:href="#DejaVuSans-117"/>
      <use x="688.525391" xlink:href="#DejaVuSans-112"/>
      <use x="752.001953" xlink:href="#DejaVuSans-101"/>
      <use x="813.525391" xlink:href="#DejaVuSans-114"/>
      <use x="854.638672" xlink:href="#DejaVuSans-69"/>
      <use x="917.822266" xlink:href="#DejaVuSans-100"/>
      <use x="981.298828" xlink:href="#DejaVuSans-103"/>
      <use x="1044.775391" xlink:href="#DejaVuSans-101"/>
      <use x="1106.298828" xlink:href="#DejaVuSans-115"/>
     </g>
    </g>
   </g>
   <g id="line2d_15">
    <path clip-path="url(#pda92aedd8e)" d="M 73.832727 286.6752 
L 77.112066 284.7744 
L 80.391405 282.8736 
L 83.670744 280.9728 
L 86.950083 279.072 
L 90.229421 277.1712 
L 93.50876 275.2704 
L 96.788099 273.3696 
L 100.067438 271.4688 
L 103.346777 269.568 
L 106.626116 267.6672 
L 109.905455 265.7664 
L 113.184793 263.8656 
L 116.464132 261.9648 
L 119.743471 260.064 
L 123.02281 258.1632 
L 126.302149 256.2624 
L 129.581488 254.3616 
L 132.860826 252.4608 
L 136.140165 250.56 
L 139.419504 248.6592 
L 142.698843 246.7584 
L 145.978182 244.8576 
L 149.257521 242.9568 
L 152.53686 241.056 
L 155.816198 239.1552 
L 159.095537 237.2544 
L 162.374876 235.3536 
L 165.654215 233.4528 
L 168.933554 231.552 
L 172.212893 229.6512 
L 175.492231 227.7504 
L 178.77157 225.8496 
L 182.050909 223.9488 
L 185.330248 222.048 
L 188.609587 220.1472 
L 191.888926 218.2464 
L 195.168264 216.3456 
L 198.447603 214.4448 
L 201.726942 212.544 
L 205.006281 210.6432 
L 208.28562 208.7424 
L 211.564959 206.8416 
L 214.844298 204.9408 
L 218.123636 203.04 
L 221.402975 201.1392 
L 224.682314 199.2384 
L 227.961653 197.3376 
L 231.240992 195.4368 
L 234.520331 193.536 
L 237.799669 191.6352 
L 241.079008 189.7344 
L 244.358347 187.8336 
L 247.637686 185.9328 
L 250.917025 184.032 
L 254.196364 182.1312 
L 257.475702 180.2304 
L 260.755041 178.3296 
L 264.03438 176.4288 
L 267.313719 174.528 
L 270.593058 172.6272 
L 273.872397 170.7264 
L 277.151736 168.8256 
L 280.431074 166.9248 
L 283.710413 165.024 
L 286.989752 163.1232 
L 290.269091 161.2224 
L 293.54843 159.3216 
L 296.827769 157.4208 
L 300.107107 155.52 
L 303.386446 153.6192 
L 306.665785 151.7184 
L 309.945124 149.8176 
L 313.224463 147.9168 
L 316.503802 146.016 
L 319.78314 144.1152 
L 323.062479 142.2144 
L 326.341818 140.3136 
L 329.621157 138.4128 
L 332.900496 136.512 
L 336.179835 134.6112 
L 339.459174 132.7104 
L 342.738512 130.8096 
L 346.017851 128.9088 
L 349.29719 127.008 
L 352.576529 125.1072 
L 355.855868 123.2064 
L 359.135207 121.3056 
L 362.414545 119.4048 
L 365.693884 117.504 
L 368.973223 115.6032 
L 372.252562 113.7024 
L 375.531901 111.8016 
L 378.81124 109.9008 
L 382.090579 108 
L 385.369917 106.0992 
L 388.649256 104.1984 
L 391.928595 102.2976 
L 395.207934 100.3968 
L 398.487273 98.496 
" style="fill:none;stroke:#0000ff;stroke-linecap:square;stroke-width:1.5;"/>
    <defs>
     <path d="M 0 0.5 
C 0.132602 0.5 0.25979 0.447317 0.353553 0.353553 
C 0.447317 0.25979 0.5 0.132602 0.5 0 
C 0.5 -0.132602 0.447317 -0.25979 0.353553 -0.353553 
C 0.25979 -0.447317 0.132602 -0.5 0 -0.5 
C -0.132602 -0.5 -0.25979 -0.447317 -0.353553 -0.353553 
C -0.447317 -0.25979 -0.5 -0.132602 -0.5 0 
C -0.5 0.132602 -0.447317 0.25979 -0.353553 0.353553 
C -0.25979 0.447317 -0.132602 0.5 0 0.5 
z
" id="mc78cf7d6bb" style="stroke:#0000ff;"/>
    </defs>
    <g clip-path="url(#pda92aedd8e)">
     <use style="fill:#0000ff;stroke:#0000ff;" x="73.832727" xlink:href="#mc78cf7d6bb" y="286.6752"/>
     <use style="fill:#0000ff;stroke:#0000ff;" x="77.112066" xlink:href="#mc78cf7d6bb" y="284.7744"/>
     <use style="fill:#0000ff;stroke:#0000ff;" x="80.391405" xlink:href="#mc78cf7d6bb" y="282.8736"/>
     <use style="fill:#0000ff;stroke:#0000ff;" x="83.670744" xlink:href="#mc78cf7d6bb" y="280.9728"/>
     <use style="fill:#0000ff;stroke:#0000ff;" x="86.950083" xlink:href="#mc78cf7d6bb" y="279.072"/>
     <use style="fill:#0000ff;stroke:#0000ff;" x="90.229421" xlink:href="#mc78cf7d6bb" y="277.1712"/>
     <use style="fill:#0000ff;stroke:#0000ff;" x="93.50876" xlink:href="#mc78cf7d6bb" y="275.2704"/>
     <use style="fill:#0000ff;stroke:#0000ff;" x="96.788099" xlink:href="#mc78cf7d6bb" y="273.3696"/>
     <use style="fill:#0000ff;stroke:#0000ff;" x="100.067438" xlink:href="#mc78cf7d6bb" y="271.4688"/>
     <use style="fill:#0000ff;stroke:#0000ff;" x="103.346777" xlink:href="#mc78cf7d6bb" y="269.568"/>
     <use style="fill:#0000ff;stroke:#0000ff;" x="106.626116" xlink:href="#mc78cf7d6bb" y="267.6672"/>
     <use style="fill:#0000ff;stroke:#0000ff;" x="109.905455" xlink:href="#mc78cf7d6bb" y="265.7664"/>
     <use style="fill:#0000ff;stroke:#0000ff;" x="113.184793" xlink:href="#mc78cf7d6bb" y="263.8656"/>
     <use style="fill:#0000ff;stroke:#0000ff;" x="116.464132" xlink:href="#mc78cf7d6bb" y="261.9648"/>
     <use style="fill:#0000ff;stroke:#0000ff;" x="119.743471" xlink:href="#mc78cf7d6bb" y="260.064"/>
     <use style="fill:#0000ff;stroke:#0000ff;" x="123.02281" xlink:href="#mc78cf7d6bb" y="258.1632"/>
     <use style="fill:#0000ff;stroke:#0000ff;" x="126.302149" xlink:href="#mc78cf7d6bb" y="256.2624"/>
     <use style="fill:#0000ff;stroke:#0000ff;" x="129.581488" xlink:href="#mc78cf7d6bb" y="254.3616"/>
     <use style="fill:#0000ff;stroke:#0000ff;" x="132.860826" xlink:href="#mc78cf7d6bb" y="252.4608"/>
     <use style="fill:#0000ff;stroke:#0000ff;" x="136.140165" xlink:href="#mc78cf7d6bb" y="250.56"/>
     <use style="fill:#0000ff;stroke:#0000ff;" x="139.419504" xlink:href="#mc78cf7d6bb" y="248.6592"/>
     <use style="fill:#0000ff;stroke:#0000ff;" x="142.698843" xlink:href="#mc78cf7d6bb" y="246.7584"/>
     <use style="fill:#0000ff;stroke:#0000ff;" x="145.978182" xlink:href="#mc78cf7d6bb" y="244.8576"/>
     <use style="fill:#0000ff;stroke:#0000ff;" x="149.257521" xlink:href="#mc78cf7d6bb" y="242.9568"/>
     <use style="fill:#0000ff;stroke:#0000ff;" x="152.53686" xlink:href="#mc78cf7d6bb" y="241.056"/>
     <use style="fill:#0000ff;stroke:#0000ff;" x="155.816198" xlink:href="#mc78cf7d6bb" y="239.1552"/>
     <use style="fill:#0000ff;stroke:#0000ff;" x="159.095537" xlink:href="#mc78cf7d6bb" y="237.2544"/>
     <use style="fill:#0000ff;stroke:#0000ff;" x="162.374876" xlink:href="#mc78cf7d6bb" y="235.3536"/>
     <use style="fill:#0000ff;stroke:#0000ff;" x="165.654215" xlink:href="#mc78cf7d6bb" y="233.4528"/>
     <use style="fill:#0000ff;stroke:#0000ff;" x="168.933554" xlink:href="#mc78cf7d6bb" y="231.552"/>
     <use style="fill:#0000ff;stroke:#0000ff;" x="172.212893" xlink:href="#mc78cf7d6bb" y="229.6512"/>
     <use style="fill:#0000ff;stroke:#0000ff;" x="175.492231" xlink:href="#mc78cf7d6bb" y="227.7504"/>
     <use style="fill:#0000ff;stroke:#0000ff;" x="178.77157" xlink:href="#mc78cf7d6bb" y="225.8496"/>
     <use style="fill:#0000ff;stroke:#0000ff;" x="182.050909" xlink:href="#mc78cf7d6bb" y="223.9488"/>
     <use style="fill:#0000ff;stroke:#0000ff;" x="185.330248" xlink:href="#mc78cf7d6bb" y="222.048"/>
     <use style="fill:#0000ff;stroke:#0000ff;" x="188.609587" xlink:href="#mc78cf7d6bb" y="220.1472"/>
     <use style="fill:#0000ff;stroke:#0000ff;" x="191.888926" xlink:href="#mc78cf7d6bb" y="218.2464"/>
     <use style="fill:#0000ff;stroke:#0000ff;" x="195.168264" xlink:href="#mc78cf7d6bb" y="216.3456"/>
     <use style="fill:#0000ff;stroke:#0000ff;" x="198.447603" xlink:href="#mc78cf7d6bb" y="214.4448"/>
     <use style="fill:#0000ff;stroke:#0000ff;" x="201.726942" xlink:href="#mc78cf7d6bb" y="212.544"/>
     <use style="fill:#0000ff;stroke:#0000ff;" x="205.006281" xlink:href="#mc78cf7d6bb" y="210.6432"/>
     <use style="fill:#0000ff;stroke:#0000ff;" x="208.28562" xlink:href="#mc78cf7d6bb" y="208.7424"/>
     <use style="fill:#0000ff;stroke:#0000ff;" x="211.564959" xlink:href="#mc78cf7d6bb" y="206.8416"/>
     <use style="fill:#0000ff;stroke:#0000ff;" x="214.844298" xlink:href="#mc78cf7d6bb" y="204.9408"/>
     <use style="fill:#0000ff;stroke:#0000ff;" x="218.123636" xlink:href="#mc78cf7d6bb" y="203.04"/>
     <use style="fill:#0000ff;stroke:#0000ff;" x="221.402975" xlink:href="#mc78cf7d6bb" y="201.1392"/>
     <use style="fill:#0000ff;stroke:#0000ff;" x="224.682314" xlink:href="#mc78cf7d6bb" y="199.2384"/>
     <use style="fill:#0000ff;stroke:#0000ff;" x="227.961653" xlink:href="#mc78cf7d6bb" y="197.3376"/>
     <use style="fill:#0000ff;stroke:#0000ff;" x="231.240992" xlink:href="#mc78cf7d6bb" y="195.4368"/>
     <use style="fill:#0000ff;stroke:#0000ff;" x="234.520331" xlink:href="#mc78cf7d6bb" y="193.536"/>
     <use style="fill:#0000ff;stroke:#0000ff;" x="237.799669" xlink:href="#mc78cf7d6bb" y="191.6352"/>
     <use style="fill:#0000ff;stroke:#0000ff;" x="241.079008" xlink:href="#mc78cf7d6bb" y="189.7344"/>
     <use style="fill:#0000ff;stroke:#0000ff;" x="244.358347" xlink:href="#mc78cf7d6bb" y="187.8336"/>
     <use style="fill:#0000ff;stroke:#0000ff;" x="247.637686" xlink:href="#mc78cf7d6bb" y="185.9328"/>
     <use style="fill:#0000ff;stroke:#0000ff;" x="250.917025" xlink:href="#mc78cf7d6bb" y="184.032"/>
     <use style="fill:#0000ff;stroke:#0000ff;" x="254.196364" xlink:href="#mc78cf7d6bb" y="182.1312"/>
     <use style="fill:#0000ff;stroke:#0000ff;" x="257.475702" xlink:href="#mc78cf7d6bb" y="180.2304"/>
     <use style="fill:#0000ff;stroke:#0000ff;" x="260.755041" xlink:href="#mc78cf7d6bb" y="178.3296"/>
     <use style="fill:#0000ff;stroke:#0000ff;" x="264.03438" xlink:href="#mc78cf7d6bb" y="176.4288"/>
     <use style="fill:#0000ff;stroke:#0000ff;" x="267.313719" xlink:href="#mc78cf7d6bb" y="174.528"/>
     <use style="fill:#0000ff;stroke:#0000ff;" x="270.593058" xlink:href="#mc78cf7d6bb" y="172.6272"/>
     <use style="fill:#0000ff;stroke:#0000ff;" x="273.872397" xlink:href="#mc78cf7d6bb" y="170.7264"/>
     <use style="fill:#0000ff;stroke:#0000ff;" x="277.151736" xlink:href="#mc78cf7d6bb" y="168.8256"/>
     <use style="fill:#0000ff;stroke:#0000ff;" x="280.431074" xlink:href="#mc78cf7d6bb" y="166.9248"/>
     <use style="fill:#0000ff;stroke:#0000ff;" x="283.710413" xlink:href="#mc78cf7d6bb" y="165.024"/>
     <use style="fill:#0000ff;stroke:#0000ff;" x="286.989752" xlink:href="#mc78cf7d6bb" y="163.1232"/>
     <use style="fill:#0000ff;stroke:#0000ff;" x="290.269091" xlink:href="#mc78cf7d6bb" y="161.2224"/>
     <use style="fill:#0000ff;stroke:#0000ff;" x="293.54843" xlink:href="#mc78cf7d6bb" y="159.3216"/>
     <use style="fill:#0000ff;stroke:#0000ff;" x="296.827769" xlink:href="#mc78cf7d6bb" y="157.4208"/>
     <use style="fill:#0000ff;stroke:#0000ff;" x="300.107107" xlink:href="#mc78cf7d6bb" y="155.52"/>
     <use style="fill:#0000ff;stroke:#0000ff;" x="303.386446" xlink:href="#mc78cf7d6bb" y="153.6192"/>
     <use style="fill:#0000ff;stroke:#0000ff;" x="306.665785" xlink:href="#mc78cf7d6bb" y="151.7184"/>
     <use style="fill:#0000ff;stroke:#0000ff;" x="309.945124" xlink:href="#mc78cf7d6bb" y="149.8176"/>
     <use style="fill:#0000ff;stroke:#0000ff;" x="313.224463" xlink:href="#mc78cf7d6bb" y="147.9168"/>
     <use style="fill:#0000ff;stroke:#0000ff;" x="316.503802" xlink:href="#mc78cf7d6bb" y="146.016"/>
     <use style="fill:#0000ff;stroke:#0000ff;" x="319.78314" xlink:href="#mc78cf7d6bb" y="144.1152"/>
     <use style="fill:#0000ff;stroke:#0000ff;" x="323.062479" xlink:href="#mc78cf7d6bb" y="142.2144"/>
     <use style="fill:#0000ff;stroke:#0000ff;" x="326.341818" xlink:href="#mc78cf7d6bb" y="140.3136"/>
     <use style="fill:#0000ff;stroke:#0000ff;" x="329.621157" xlink:href="#mc78cf7d6bb" y="138.4128"/>
     <use style="fill:#0000ff;stroke:#0000ff;" x="332.900496" xlink:href="#mc78cf7d6bb" y="136.512"/>
     <use style="fill:#0000ff;stroke:#0000ff;" x="336.179835" xlink:href="#mc78cf7d6bb" y="134.6112"/>
     <use style="fill:#0000ff;stroke:#0000ff;" x="339.459174" xlink:href="#mc78cf7d6bb" y="132.7104"/>
     <use style="fill:#0000ff;stroke:#0000ff;" x="342.738512" xlink:href="#mc78cf7d6bb" y="130.8096"/>
     <use style="fill:#0000ff;stroke:#0000ff;" x="346.017851" xlink:href="#mc78cf7d6bb" y="128.9088"/>
     <use style="fill:#0000ff;stroke:#0000ff;" x="349.29719" xlink:href="#mc78cf7d6bb" y="127.008"/>
     <use style="fill:#0000ff;stroke:#0000ff;" x="352.576529" xlink:href="#mc78cf7d6bb" y="125.1072"/>
     <use style="fill:#0000ff;stroke:#0000ff;" x="355.855868" xlink:href="#mc78cf7d6bb" y="123.2064"/>
     <use style="fill:#0000ff;stroke:#0000ff;" x="359.135207" xlink:href="#mc78cf7d6bb" y="121.3056"/>
     <use style="fill:#0000ff;stroke:#0000ff;" x="362.414545" xlink:href="#mc78cf7d6bb" y="119.4048"/>
     <use style="fill:#0000ff;stroke:#0000ff;" x="365.693884" xlink:href="#mc78cf7d6bb" y="117.504"/>
     <use style="fill:#0000ff;stroke:#0000ff;" x="368.973223" xlink:href="#mc78cf7d6bb" y="115.6032"/>
     <use style="fill:#0000ff;stroke:#0000ff;" x="372.252562" xlink:href="#mc78cf7d6bb" y="113.7024"/>
     <use style="fill:#0000ff;stroke:#0000ff;" x="375.531901" xlink:href="#mc78cf7d6bb" y="111.8016"/>
     <use style="fill:#0000ff;stroke:#0000ff;" x="378.81124" xlink:href="#mc78cf7d6bb" y="109.9008"/>
     <use style="fill:#0000ff;stroke:#0000ff;" x="382.090579" xlink:href="#mc78cf7d6bb" y="108"/>
     <use style="fill:#0000ff;stroke:#0000ff;" x="385.369917" xlink:href="#mc78cf7d6bb" y="106.0992"/>
     <use style="fill:#0000ff;stroke:#0000ff;" x="388.649256" xlink:href="#mc78cf7d6bb" y="104.1984"/>
     <use style="fill:#0000ff;stroke:#0000ff;" x="391.928595" xlink:href="#mc78cf7d6bb" y="102.2976"/>
     <use style="fill:#0000ff;stroke:#0000ff;" x="395.207934" xlink:href="#mc78cf7d6bb" y="100.3968"/>
     <use style="fill:#0000ff;stroke:#0000ff;" x="398.487273" xlink:href="#mc78cf7d6bb" y="98.496"/>
    </g>
   </g>
   <g id="patch_3">
    <path d="M 57.6 307.584 
L 57.6 41.472 
" style="fill:none;stroke:#000000;stroke-linecap:square;stroke-linejoin:miter;stroke-width:0.8;"/>
   </g>
   <g id="patch_4">
    <path d="M 414.72 307.584 
L 414.72 41.472 
" style="fill:none;stroke:#000000;stroke-linecap:square;stroke-linejoin:miter;stroke-width:0.8;"/>
   </g>
   <g id="patch_5">
    <path d="M 57.6 307.584 
L 414.72 307.584 
" style="fill:none;stroke:#000000;stroke-linecap:square;stroke-linejoin:miter;stroke-width:0.8;"/>
   </g>
   <g id="patch_6">
    <path d="M 57.6 41.472 
L 414.72 41.472 
" style="fill:none;stroke:#000000;stroke-linecap:square;stroke-linejoin:miter;stroke-width:0.8;"/>
   </g>
  </g>
  <g id="axes_2">
   <g id="matplotlib.axis_3">
    <g id="ytick_9">
     <g id="line2d_16">
      <defs>
       <path d="M 0 0 
L 3.5 0 
" id="m9ff6e2d647" style="stroke:#000000;stroke-width:0.8;"/>
      </defs>
      <g>
       <use style="stroke:#000000;stroke-width:0.8;" x="414.72" xlink:href="#m9ff6e2d647" y="307.584"/>
      </g>
     </g>
     <g id="text_17">
      <!-- 0 -->
      <g transform="translate(421.72 311.383219)scale(0.1 -0.1)">
       <use xlink:href="#DejaVuSans-48"/>
      </g>
     </g>
    </g>
    <g id="ytick_10">
     <g id="line2d_17">
      <g>
       <use style="stroke:#000000;stroke-width:0.8;" x="414.72" xlink:href="#m9ff6e2d647" y="250.964426"/>
      </g>
     </g>
     <g id="text_18">
      <!-- 100 -->
      <g transform="translate(421.72 254.763644)scale(0.1 -0.1)">
       <use xlink:href="#DejaVuSans-49"/>
       <use x="63.623047" xlink:href="#DejaVuSans-48"/>
       <use x="127.246094" xlink:href="#DejaVuSans-48"/>
      </g>
     </g>
    </g>
    <g id="ytick_11">
     <g id="line2d_18">
      <g>
       <use style="stroke:#000000;stroke-width:0.8;" x="414.72" xlink:href="#m9ff6e2d647" y="194.344851"/>
      </g>
     </g>
     <g id="text_19">
      <!-- 200 -->
      <g transform="translate(421.72 198.14407)scale(0.1 -0.1)">
       <use xlink:href="#DejaVuSans-50"/>
       <use x="63.623047" xlink:href="#DejaVuSans-48"/>
       <use x="127.246094" xlink:href="#DejaVuSans-48"/>
      </g>
     </g>
    </g>
    <g id="ytick_12">
     <g id="line2d_19">
      <g>
       <use style="stroke:#000000;stroke-width:0.8;" x="414.72" xlink:href="#m9ff6e2d647" y="137.725277"/>
      </g>
     </g>
     <g id="text_20">
      <!-- 300 -->
      <defs>
       <path d="M 40.578125 39.3125 
Q 47.65625 37.796875 51.625 33 
Q 55.609375 28.21875 55.609375 21.1875 
Q 55.609375 10.40625 48.1875 4.484375 
Q 40.765625 -1.421875 27.09375 -1.421875 
Q 22.515625 -1.421875 17.65625 -0.515625 
Q 12.796875 0.390625 7.625 2.203125 
L 7.625 11.71875 
Q 11.71875 9.328125 16.59375 8.109375 
Q 21.484375 6.890625 26.8125 6.890625 
Q 36.078125 6.890625 40.9375 10.546875 
Q 45.796875 14.203125 45.796875 21.1875 
Q 45.796875 27.640625 41.28125 31.265625 
Q 36.765625 34.90625 28.71875 34.90625 
L 20.21875 34.90625 
L 20.21875 43.015625 
L 29.109375 43.015625 
Q 36.375 43.015625 40.234375 45.921875 
Q 44.09375 48.828125 44.09375 54.296875 
Q 44.09375 59.90625 40.109375 62.90625 
Q 36.140625 65.921875 28.71875 65.921875 
Q 24.65625 65.921875 20.015625 65.03125 
Q 15.375 64.15625 9.8125 62.3125 
L 9.8125 71.09375 
Q 15.4375 72.65625 20.34375 73.4375 
Q 25.25 74.21875 29.59375 74.21875 
Q 40.828125 74.21875 47.359375 69.109375 
Q 53.90625 64.015625 53.90625 55.328125 
Q 53.90625 49.265625 50.4375 45.09375 
Q 46.96875 40.921875 40.578125 39.3125 
z
" id="DejaVuSans-51"/>
      </defs>
      <g transform="translate(421.72 141.524495)scale(0.1 -0.1)">
       <use xlink:href="#DejaVuSans-51"/>
       <use x="63.623047" xlink:href="#DejaVuSans-48"/>
       <use x="127.246094" xlink:href="#DejaVuSans-48"/>
      </g>
     </g>
    </g>
    <g id="ytick_13">
     <g id="line2d_20">
      <g>
       <use style="stroke:#000000;stroke-width:0.8;" x="414.72" xlink:href="#m9ff6e2d647" y="81.105702"/>
      </g>
     </g>
     <g id="text_21">
      <!-- 400 -->
      <g transform="translate(421.72 84.904921)scale(0.1 -0.1)">
       <use xlink:href="#DejaVuSans-52"/>
       <use x="63.623047" xlink:href="#DejaVuSans-48"/>
       <use x="127.246094" xlink:href="#DejaVuSans-48"/>
      </g>
     </g>
    </g>
    <g id="text_22">
     <!-- Change in Inversion Number of Layer1 and Layer4 -->
     <defs>
      <path d="M 9.8125 72.90625 
L 19.671875 72.90625 
L 19.671875 0 
L 9.8125 0 
z
" id="DejaVuSans-73"/>
      <path d="M 2.984375 54.6875 
L 12.5 54.6875 
L 29.59375 8.796875 
L 46.6875 54.6875 
L 56.203125 54.6875 
L 35.6875 0 
L 23.484375 0 
z
" id="DejaVuSans-118"/>
      <path d="M 9.8125 72.90625 
L 19.671875 72.90625 
L 19.671875 8.296875 
L 55.171875 8.296875 
L 55.171875 0 
L 9.8125 0 
z
" id="DejaVuSans-76"/>
      <path d="M 32.171875 -5.078125 
Q 28.375 -14.84375 24.75 -17.8125 
Q 21.140625 -20.796875 15.09375 -20.796875 
L 7.90625 -20.796875 
L 7.90625 -13.28125 
L 13.1875 -13.28125 
Q 16.890625 -13.28125 18.9375 -11.515625 
Q 21 -9.765625 23.484375 -3.21875 
L 25.09375 0.875 
L 2.984375 54.6875 
L 12.5 54.6875 
L 29.59375 11.921875 
L 46.6875 54.6875 
L 56.203125 54.6875 
z
" id="DejaVuSans-121"/>
     </defs>
     <g transform="translate(452.405937 300.867844)rotate(-90)scale(0.1 -0.1)">
      <use xlink:href="#DejaVuSans-67"/>
      <use x="69.824219" xlink:href="#DejaVuSans-104"/>
      <use x="133.203125" xlink:href="#DejaVuSans-97"/>
      <use x="194.482422" xlink:href="#DejaVuSans-110"/>
      <use x="257.861328" xlink:href="#DejaVuSans-103"/>
      <use x="321.337891" xlink:href="#DejaVuSans-101"/>
      <use x="382.861328" xlink:href="#DejaVuSans-32"/>
      <use x="414.648438" xlink:href="#DejaVuSans-105"/>
      <use x="442.431641" xlink:href="#DejaVuSans-110"/>
      <use x="505.810547" xlink:href="#DejaVuSans-32"/>
      <use x="537.597656" xlink:href="#DejaVuSans-73"/>
      <use x="567.089844" xlink:href="#DejaVuSans-110"/>
      <use x="630.46875" xlink:href="#DejaVuSans-118"/>
      <use x="689.648438" xlink:href="#DejaVuSans-101"/>
      <use x="751.171875" xlink:href="#DejaVuSans-114"/>
      <use x="792.285156" xlink:href="#DejaVuSans-115"/>
      <use x="844.384766" xlink:href="#DejaVuSans-105"/>
      <use x="872.167969" xlink:href="#DejaVuSans-111"/>
      <use x="933.349609" xlink:href="#DejaVuSans-110"/>
      <use x="996.728516" xlink:href="#DejaVuSans-32"/>
      <use x="1028.515625" xlink:href="#DejaVuSans-78"/>
      <use x="1103.320312" xlink:href="#DejaVuSans-117"/>
      <use x="1166.699219" xlink:href="#DejaVuSans-109"/>
      <use x="1264.111328" xlink:href="#DejaVuSans-98"/>
      <use x="1327.587891" xlink:href="#DejaVuSans-101"/>
      <use x="1389.111328" xlink:href="#DejaVuSans-114"/>
      <use x="1430.224609" xlink:href="#DejaVuSans-32"/>
      <use x="1462.011719" xlink:href="#DejaVuSans-111"/>
      <use x="1523.193359" xlink:href="#DejaVuSans-102"/>
      <use x="1558.398438" xlink:href="#DejaVuSans-32"/>
      <use x="1590.185547" xlink:href="#DejaVuSans-76"/>
      <use x="1645.898438" xlink:href="#DejaVuSans-97"/>
      <use x="1707.177734" xlink:href="#DejaVuSans-121"/>
      <use x="1766.357422" xlink:href="#DejaVuSans-101"/>
      <use x="1827.880859" xlink:href="#DejaVuSans-114"/>
      <use x="1868.994141" xlink:href="#DejaVuSans-49"/>
      <use x="1932.617188" xlink:href="#DejaVuSans-32"/>
      <use x="1964.404297" xlink:href="#DejaVuSans-97"/>
      <use x="2025.683594" xlink:href="#DejaVuSans-110"/>
      <use x="2089.0625" xlink:href="#DejaVuSans-100"/>
      <use x="2152.539062" xlink:href="#DejaVuSans-32"/>
      <use x="2184.326172" xlink:href="#DejaVuSans-76"/>
      <use x="2240.039062" xlink:href="#DejaVuSans-97"/>
      <use x="2301.318359" xlink:href="#DejaVuSans-121"/>
      <use x="2360.498047" xlink:href="#DejaVuSans-101"/>
      <use x="2422.021484" xlink:href="#DejaVuSans-114"/>
      <use x="2463.134766" xlink:href="#DejaVuSans-52"/>
     </g>
    </g>
   </g>
   <g id="line2d_21">
    <path clip-path="url(#pda92aedd8e)" d="M 73.832727 307.017804 
L 77.112066 306.451609 
L 80.391405 305.885413 
L 83.670744 305.885413 
L 86.950083 305.885413 
L 90.229421 305.885413 
L 93.50876 304.753021 
L 96.788099 304.753021 
L 100.067438 304.753021 
L 103.346777 302.488238 
L 106.626116 303.054434 
L 109.905455 303.054434 
L 113.184793 303.054434 
L 116.464132 303.62063 
L 119.743471 303.62063 
L 123.02281 303.62063 
L 126.302149 303.054434 
L 129.581488 302.488238 
L 132.860826 301.922043 
L 136.140165 301.355847 
L 139.419504 301.355847 
L 142.698843 300.789651 
L 145.978182 301.355847 
L 149.257521 300.789651 
L 152.53686 300.789651 
L 155.816198 301.922043 
L 159.095537 301.355847 
L 162.374876 301.355847 
L 165.654215 301.355847 
L 168.933554 301.355847 
L 172.212893 301.355847 
L 175.492231 300.789651 
L 178.77157 300.223455 
L 182.050909 300.223455 
L 185.330248 299.65726 
L 188.609587 299.65726 
L 191.888926 299.091064 
L 195.168264 299.091064 
L 198.447603 297.958672 
L 201.726942 298.524868 
L 205.006281 298.524868 
L 208.28562 299.091064 
L 211.564959 298.524868 
L 214.844298 298.524868 
L 218.123636 297.958672 
L 221.402975 297.958672 
L 224.682314 298.524868 
L 227.961653 298.524868 
L 231.240992 299.091064 
L 234.520331 299.65726 
L 237.799669 298.524868 
L 241.079008 298.524868 
L 244.358347 298.524868 
L 247.637686 299.091064 
L 250.917025 302.488238 
L 254.196364 302.488238 
L 257.475702 300.223455 
L 260.755041 300.223455 
L 264.03438 300.223455 
L 267.313719 300.223455 
L 270.593058 299.091064 
L 273.872397 299.65726 
L 277.151736 299.65726 
L 280.431074 299.65726 
L 283.710413 299.091064 
L 286.989752 297.958672 
L 290.269091 299.091064 
L 293.54843 298.524868 
L 296.827769 299.091064 
L 300.107107 299.091064 
L 303.386446 299.65726 
L 306.665785 299.65726 
L 309.945124 300.789651 
L 313.224463 299.65726 
L 316.503802 296.260085 
L 319.78314 296.826281 
L 323.062479 296.826281 
L 326.341818 297.958672 
L 329.621157 298.524868 
L 332.900496 299.091064 
L 336.179835 299.091064 
L 339.459174 299.091064 
L 342.738512 298.524868 
L 346.017851 299.65726 
L 349.29719 297.392477 
L 352.576529 296.260085 
L 355.855868 295.693889 
L 359.135207 297.392477 
L 362.414545 295.693889 
L 365.693884 296.826281 
L 368.973223 296.826281 
L 372.252562 296.260085 
L 375.531901 296.260085 
L 378.81124 296.826281 
L 382.090579 294.561498 
L 385.369917 293.995302 
L 388.649256 293.995302 
L 391.928595 295.693889 
L 395.207934 295.693889 
" style="fill:none;stroke:#ff0000;stroke-linecap:square;stroke-width:1.5;"/>
    <defs>
     <path d="M -0.5 0.5 
L 0.5 -0.5 
M -0.5 -0.5 
L 0.5 0.5 
" id="ma015863fef" style="stroke:#ff0000;"/>
    </defs>
    <g clip-path="url(#pda92aedd8e)">
     <use style="fill:#ff0000;stroke:#ff0000;" x="73.832727" xlink:href="#ma015863fef" y="307.017804"/>
     <use style="fill:#ff0000;stroke:#ff0000;" x="77.112066" xlink:href="#ma015863fef" y="306.451609"/>
     <use style="fill:#ff0000;stroke:#ff0000;" x="80.391405" xlink:href="#ma015863fef" y="305.885413"/>
     <use style="fill:#ff0000;stroke:#ff0000;" x="83.670744" xlink:href="#ma015863fef" y="305.885413"/>
     <use style="fill:#ff0000;stroke:#ff0000;" x="86.950083" xlink:href="#ma015863fef" y="305.885413"/>
     <use style="fill:#ff0000;stroke:#ff0000;" x="90.229421" xlink:href="#ma015863fef" y="305.885413"/>
     <use style="fill:#ff0000;stroke:#ff0000;" x="93.50876" xlink:href="#ma015863fef" y="304.753021"/>
     <use style="fill:#ff0000;stroke:#ff0000;" x="96.788099" xlink:href="#ma015863fef" y="304.753021"/>
     <use style="fill:#ff0000;stroke:#ff0000;" x="100.067438" xlink:href="#ma015863fef" y="304.753021"/>
     <use style="fill:#ff0000;stroke:#ff0000;" x="103.346777" xlink:href="#ma015863fef" y="302.488238"/>
     <use style="fill:#ff0000;stroke:#ff0000;" x="106.626116" xlink:href="#ma015863fef" y="303.054434"/>
     <use style="fill:#ff0000;stroke:#ff0000;" x="109.905455" xlink:href="#ma015863fef" y="303.054434"/>
     <use style="fill:#ff0000;stroke:#ff0000;" x="113.184793" xlink:href="#ma015863fef" y="303.054434"/>
     <use style="fill:#ff0000;stroke:#ff0000;" x="116.464132" xlink:href="#ma015863fef" y="303.62063"/>
     <use style="fill:#ff0000;stroke:#ff0000;" x="119.743471" xlink:href="#ma015863fef" y="303.62063"/>
     <use style="fill:#ff0000;stroke:#ff0000;" x="123.02281" xlink:href="#ma015863fef" y="303.62063"/>
     <use style="fill:#ff0000;stroke:#ff0000;" x="126.302149" xlink:href="#ma015863fef" y="303.054434"/>
     <use style="fill:#ff0000;stroke:#ff0000;" x="129.581488" xlink:href="#ma015863fef" y="302.488238"/>
     <use style="fill:#ff0000;stroke:#ff0000;" x="132.860826" xlink:href="#ma015863fef" y="301.922043"/>
     <use style="fill:#ff0000;stroke:#ff0000;" x="136.140165" xlink:href="#ma015863fef" y="301.355847"/>
     <use style="fill:#ff0000;stroke:#ff0000;" x="139.419504" xlink:href="#ma015863fef" y="301.355847"/>
     <use style="fill:#ff0000;stroke:#ff0000;" x="142.698843" xlink:href="#ma015863fef" y="300.789651"/>
     <use style="fill:#ff0000;stroke:#ff0000;" x="145.978182" xlink:href="#ma015863fef" y="301.355847"/>
     <use style="fill:#ff0000;stroke:#ff0000;" x="149.257521" xlink:href="#ma015863fef" y="300.789651"/>
     <use style="fill:#ff0000;stroke:#ff0000;" x="152.53686" xlink:href="#ma015863fef" y="300.789651"/>
     <use style="fill:#ff0000;stroke:#ff0000;" x="155.816198" xlink:href="#ma015863fef" y="301.922043"/>
     <use style="fill:#ff0000;stroke:#ff0000;" x="159.095537" xlink:href="#ma015863fef" y="301.355847"/>
     <use style="fill:#ff0000;stroke:#ff0000;" x="162.374876" xlink:href="#ma015863fef" y="301.355847"/>
     <use style="fill:#ff0000;stroke:#ff0000;" x="165.654215" xlink:href="#ma015863fef" y="301.355847"/>
     <use style="fill:#ff0000;stroke:#ff0000;" x="168.933554" xlink:href="#ma015863fef" y="301.355847"/>
     <use style="fill:#ff0000;stroke:#ff0000;" x="172.212893" xlink:href="#ma015863fef" y="301.355847"/>
     <use style="fill:#ff0000;stroke:#ff0000;" x="175.492231" xlink:href="#ma015863fef" y="300.789651"/>
     <use style="fill:#ff0000;stroke:#ff0000;" x="178.77157" xlink:href="#ma015863fef" y="300.223455"/>
     <use style="fill:#ff0000;stroke:#ff0000;" x="182.050909" xlink:href="#ma015863fef" y="300.223455"/>
     <use style="fill:#ff0000;stroke:#ff0000;" x="185.330248" xlink:href="#ma015863fef" y="299.65726"/>
     <use style="fill:#ff0000;stroke:#ff0000;" x="188.609587" xlink:href="#ma015863fef" y="299.65726"/>
     <use style="fill:#ff0000;stroke:#ff0000;" x="191.888926" xlink:href="#ma015863fef" y="299.091064"/>
     <use style="fill:#ff0000;stroke:#ff0000;" x="195.168264" xlink:href="#ma015863fef" y="299.091064"/>
     <use style="fill:#ff0000;stroke:#ff0000;" x="198.447603" xlink:href="#ma015863fef" y="297.958672"/>
     <use style="fill:#ff0000;stroke:#ff0000;" x="201.726942" xlink:href="#ma015863fef" y="298.524868"/>
     <use style="fill:#ff0000;stroke:#ff0000;" x="205.006281" xlink:href="#ma015863fef" y="298.524868"/>
     <use style="fill:#ff0000;stroke:#ff0000;" x="208.28562" xlink:href="#ma015863fef" y="299.091064"/>
     <use style="fill:#ff0000;stroke:#ff0000;" x="211.564959" xlink:href="#ma015863fef" y="298.524868"/>
     <use style="fill:#ff0000;stroke:#ff0000;" x="214.844298" xlink:href="#ma015863fef" y="298.524868"/>
     <use style="fill:#ff0000;stroke:#ff0000;" x="218.123636" xlink:href="#ma015863fef" y="297.958672"/>
     <use style="fill:#ff0000;stroke:#ff0000;" x="221.402975" xlink:href="#ma015863fef" y="297.958672"/>
     <use style="fill:#ff0000;stroke:#ff0000;" x="224.682314" xlink:href="#ma015863fef" y="298.524868"/>
     <use style="fill:#ff0000;stroke:#ff0000;" x="227.961653" xlink:href="#ma015863fef" y="298.524868"/>
     <use style="fill:#ff0000;stroke:#ff0000;" x="231.240992" xlink:href="#ma015863fef" y="299.091064"/>
     <use style="fill:#ff0000;stroke:#ff0000;" x="234.520331" xlink:href="#ma015863fef" y="299.65726"/>
     <use style="fill:#ff0000;stroke:#ff0000;" x="237.799669" xlink:href="#ma015863fef" y="298.524868"/>
     <use style="fill:#ff0000;stroke:#ff0000;" x="241.079008" xlink:href="#ma015863fef" y="298.524868"/>
     <use style="fill:#ff0000;stroke:#ff0000;" x="244.358347" xlink:href="#ma015863fef" y="298.524868"/>
     <use style="fill:#ff0000;stroke:#ff0000;" x="247.637686" xlink:href="#ma015863fef" y="299.091064"/>
     <use style="fill:#ff0000;stroke:#ff0000;" x="250.917025" xlink:href="#ma015863fef" y="302.488238"/>
     <use style="fill:#ff0000;stroke:#ff0000;" x="254.196364" xlink:href="#ma015863fef" y="302.488238"/>
     <use style="fill:#ff0000;stroke:#ff0000;" x="257.475702" xlink:href="#ma015863fef" y="300.223455"/>
     <use style="fill:#ff0000;stroke:#ff0000;" x="260.755041" xlink:href="#ma015863fef" y="300.223455"/>
     <use style="fill:#ff0000;stroke:#ff0000;" x="264.03438" xlink:href="#ma015863fef" y="300.223455"/>
     <use style="fill:#ff0000;stroke:#ff0000;" x="267.313719" xlink:href="#ma015863fef" y="300.223455"/>
     <use style="fill:#ff0000;stroke:#ff0000;" x="270.593058" xlink:href="#ma015863fef" y="299.091064"/>
     <use style="fill:#ff0000;stroke:#ff0000;" x="273.872397" xlink:href="#ma015863fef" y="299.65726"/>
     <use style="fill:#ff0000;stroke:#ff0000;" x="277.151736" xlink:href="#ma015863fef" y="299.65726"/>
     <use style="fill:#ff0000;stroke:#ff0000;" x="280.431074" xlink:href="#ma015863fef" y="299.65726"/>
     <use style="fill:#ff0000;stroke:#ff0000;" x="283.710413" xlink:href="#ma015863fef" y="299.091064"/>
     <use style="fill:#ff0000;stroke:#ff0000;" x="286.989752" xlink:href="#ma015863fef" y="297.958672"/>
     <use style="fill:#ff0000;stroke:#ff0000;" x="290.269091" xlink:href="#ma015863fef" y="299.091064"/>
     <use style="fill:#ff0000;stroke:#ff0000;" x="293.54843" xlink:href="#ma015863fef" y="298.524868"/>
     <use style="fill:#ff0000;stroke:#ff0000;" x="296.827769" xlink:href="#ma015863fef" y="299.091064"/>
     <use style="fill:#ff0000;stroke:#ff0000;" x="300.107107" xlink:href="#ma015863fef" y="299.091064"/>
     <use style="fill:#ff0000;stroke:#ff0000;" x="303.386446" xlink:href="#ma015863fef" y="299.65726"/>
     <use style="fill:#ff0000;stroke:#ff0000;" x="306.665785" xlink:href="#ma015863fef" y="299.65726"/>
     <use style="fill:#ff0000;stroke:#ff0000;" x="309.945124" xlink:href="#ma015863fef" y="300.789651"/>
     <use style="fill:#ff0000;stroke:#ff0000;" x="313.224463" xlink:href="#ma015863fef" y="299.65726"/>
     <use style="fill:#ff0000;stroke:#ff0000;" x="316.503802" xlink:href="#ma015863fef" y="296.260085"/>
     <use style="fill:#ff0000;stroke:#ff0000;" x="319.78314" xlink:href="#ma015863fef" y="296.826281"/>
     <use style="fill:#ff0000;stroke:#ff0000;" x="323.062479" xlink:href="#ma015863fef" y="296.826281"/>
     <use style="fill:#ff0000;stroke:#ff0000;" x="326.341818" xlink:href="#ma015863fef" y="297.958672"/>
     <use style="fill:#ff0000;stroke:#ff0000;" x="329.621157" xlink:href="#ma015863fef" y="298.524868"/>
     <use style="fill:#ff0000;stroke:#ff0000;" x="332.900496" xlink:href="#ma015863fef" y="299.091064"/>
     <use style="fill:#ff0000;stroke:#ff0000;" x="336.179835" xlink:href="#ma015863fef" y="299.091064"/>
     <use style="fill:#ff0000;stroke:#ff0000;" x="339.459174" xlink:href="#ma015863fef" y="299.091064"/>
     <use style="fill:#ff0000;stroke:#ff0000;" x="342.738512" xlink:href="#ma015863fef" y="298.524868"/>
     <use style="fill:#ff0000;stroke:#ff0000;" x="346.017851" xlink:href="#ma015863fef" y="299.65726"/>
     <use style="fill:#ff0000;stroke:#ff0000;" x="349.29719" xlink:href="#ma015863fef" y="297.392477"/>
     <use style="fill:#ff0000;stroke:#ff0000;" x="352.576529" xlink:href="#ma015863fef" y="296.260085"/>
     <use style="fill:#ff0000;stroke:#ff0000;" x="355.855868" xlink:href="#ma015863fef" y="295.693889"/>
     <use style="fill:#ff0000;stroke:#ff0000;" x="359.135207" xlink:href="#ma015863fef" y="297.392477"/>
     <use style="fill:#ff0000;stroke:#ff0000;" x="362.414545" xlink:href="#ma015863fef" y="295.693889"/>
     <use style="fill:#ff0000;stroke:#ff0000;" x="365.693884" xlink:href="#ma015863fef" y="296.826281"/>
     <use style="fill:#ff0000;stroke:#ff0000;" x="368.973223" xlink:href="#ma015863fef" y="296.826281"/>
     <use style="fill:#ff0000;stroke:#ff0000;" x="372.252562" xlink:href="#ma015863fef" y="296.260085"/>
     <use style="fill:#ff0000;stroke:#ff0000;" x="375.531901" xlink:href="#ma015863fef" y="296.260085"/>
     <use style="fill:#ff0000;stroke:#ff0000;" x="378.81124" xlink:href="#ma015863fef" y="296.826281"/>
     <use style="fill:#ff0000;stroke:#ff0000;" x="382.090579" xlink:href="#ma015863fef" y="294.561498"/>
     <use style="fill:#ff0000;stroke:#ff0000;" x="385.369917" xlink:href="#ma015863fef" y="293.995302"/>
     <use style="fill:#ff0000;stroke:#ff0000;" x="388.649256" xlink:href="#ma015863fef" y="293.995302"/>
     <use style="fill:#ff0000;stroke:#ff0000;" x="391.928595" xlink:href="#ma015863fef" y="295.693889"/>
     <use style="fill:#ff0000;stroke:#ff0000;" x="395.207934" xlink:href="#ma015863fef" y="295.693889"/>
    </g>
   </g>
   <g id="line2d_22">
    <path clip-path="url(#pda92aedd8e)" d="M 73.832727 296.260085 
L 77.112066 279.840409 
L 80.391405 267.384102 
L 83.670744 253.795404 
L 86.950083 239.074315 
L 90.229421 236.809532 
L 93.50876 236.243336 
L 96.788099 234.544749 
L 100.067438 232.279966 
L 103.346777 232.279966 
L 106.626116 225.485617 
L 109.905455 211.896919 
L 113.184793 211.330723 
L 116.464132 212.463115 
L 119.743471 214.727898 
L 123.02281 205.10257 
L 126.302149 204.536374 
L 129.581488 203.403983 
L 132.860826 196.043438 
L 136.140165 183.587132 
L 139.419504 178.49137 
L 142.698843 183.587132 
L 145.978182 184.719523 
L 149.257521 180.189957 
L 152.53686 181.322349 
L 155.816198 177.358979 
L 159.095537 172.263217 
L 162.374876 169.998434 
L 165.654215 160.373106 
L 168.933554 164.336477 
L 172.212893 153.012562 
L 175.492231 149.615387 
L 178.77157 150.181583 
L 182.050909 147.350604 
L 185.330248 141.122451 
L 188.609587 137.725277 
L 191.888926 134.894298 
L 195.168264 136.592885 
L 198.447603 143.387234 
L 201.726942 148.482996 
L 205.006281 146.218213 
L 208.28562 155.277345 
L 211.564959 154.144953 
L 214.844298 150.181583 
L 218.123636 150.181583 
L 221.402975 148.482996 
L 224.682314 146.784409 
L 227.961653 144.519626 
L 231.240992 148.482996 
L 234.520331 138.291472 
L 237.799669 138.857668 
L 241.079008 135.460494 
L 244.358347 129.23234 
L 247.637686 131.497123 
L 250.917025 135.460494 
L 254.196364 127.533753 
L 257.475702 126.967557 
L 260.755041 124.136579 
L 264.03438 120.739404 
L 267.313719 113.945055 
L 270.593058 112.246468 
L 273.872397 111.680272 
L 277.151736 112.246468 
L 280.431074 113.37886 
L 283.710413 115.643643 
L 286.989752 122.437991 
L 290.269091 128.099949 
L 293.54843 127.533753 
L 296.827769 128.099949 
L 300.107107 125.835166 
L 303.386446 138.291472 
L 306.665785 139.99006 
L 309.945124 140.556255 
L 313.224463 138.291472 
L 316.503802 136.026689 
L 319.78314 140.556255 
L 323.062479 137.725277 
L 326.341818 143.387234 
L 329.621157 140.556255 
L 332.900496 137.159081 
L 336.179835 147.350604 
L 339.459174 139.423864 
L 342.738512 141.122451 
L 346.017851 142.821038 
L 349.29719 135.460494 
L 352.576529 133.195711 
L 355.855868 133.195711 
L 359.135207 129.798536 
L 362.414545 133.195711 
L 365.693884 125.26897 
L 368.973223 127.533753 
L 372.252562 129.798536 
L 375.531901 127.533753 
L 378.81124 124.702774 
L 382.090579 123.570383 
L 385.369917 115.643643 
L 388.649256 120.173209 
L 391.928595 123.570383 
L 395.207934 121.3056 
" style="fill:none;stroke:#800080;stroke-linecap:square;stroke-width:1.5;"/>
    <defs>
     <path d="M -0.5 0.5 
L 0.5 -0.5 
M -0.5 -0.5 
L 0.5 0.5 
" id="m3364aa4914" style="stroke:#800080;"/>
    </defs>
    <g clip-path="url(#pda92aedd8e)">
     <use style="fill:#800080;stroke:#800080;" x="73.832727" xlink:href="#m3364aa4914" y="296.260085"/>
     <use style="fill:#800080;stroke:#800080;" x="77.112066" xlink:href="#m3364aa4914" y="279.840409"/>
     <use style="fill:#800080;stroke:#800080;" x="80.391405" xlink:href="#m3364aa4914" y="267.384102"/>
     <use style="fill:#800080;stroke:#800080;" x="83.670744" xlink:href="#m3364aa4914" y="253.795404"/>
     <use style="fill:#800080;stroke:#800080;" x="86.950083" xlink:href="#m3364aa4914" y="239.074315"/>
     <use style="fill:#800080;stroke:#800080;" x="90.229421" xlink:href="#m3364aa4914" y="236.809532"/>
     <use style="fill:#800080;stroke:#800080;" x="93.50876" xlink:href="#m3364aa4914" y="236.243336"/>
     <use style="fill:#800080;stroke:#800080;" x="96.788099" xlink:href="#m3364aa4914" y="234.544749"/>
     <use style="fill:#800080;stroke:#800080;" x="100.067438" xlink:href="#m3364aa4914" y="232.279966"/>
     <use style="fill:#800080;stroke:#800080;" x="103.346777" xlink:href="#m3364aa4914" y="232.279966"/>
     <use style="fill:#800080;stroke:#800080;" x="106.626116" xlink:href="#m3364aa4914" y="225.485617"/>
     <use style="fill:#800080;stroke:#800080;" x="109.905455" xlink:href="#m3364aa4914" y="211.896919"/>
     <use style="fill:#800080;stroke:#800080;" x="113.184793" xlink:href="#m3364aa4914" y="211.330723"/>
     <use style="fill:#800080;stroke:#800080;" x="116.464132" xlink:href="#m3364aa4914" y="212.463115"/>
     <use style="fill:#800080;stroke:#800080;" x="119.743471" xlink:href="#m3364aa4914" y="214.727898"/>
     <use style="fill:#800080;stroke:#800080;" x="123.02281" xlink:href="#m3364aa4914" y="205.10257"/>
     <use style="fill:#800080;stroke:#800080;" x="126.302149" xlink:href="#m3364aa4914" y="204.536374"/>
     <use style="fill:#800080;stroke:#800080;" x="129.581488" xlink:href="#m3364aa4914" y="203.403983"/>
     <use style="fill:#800080;stroke:#800080;" x="132.860826" xlink:href="#m3364aa4914" y="196.043438"/>
     <use style="fill:#800080;stroke:#800080;" x="136.140165" xlink:href="#m3364aa4914" y="183.587132"/>
     <use style="fill:#800080;stroke:#800080;" x="139.419504" xlink:href="#m3364aa4914" y="178.49137"/>
     <use style="fill:#800080;stroke:#800080;" x="142.698843" xlink:href="#m3364aa4914" y="183.587132"/>
     <use style="fill:#800080;stroke:#800080;" x="145.978182" xlink:href="#m3364aa4914" y="184.719523"/>
     <use style="fill:#800080;stroke:#800080;" x="149.257521" xlink:href="#m3364aa4914" y="180.189957"/>
     <use style="fill:#800080;stroke:#800080;" x="152.53686" xlink:href="#m3364aa4914" y="181.322349"/>
     <use style="fill:#800080;stroke:#800080;" x="155.816198" xlink:href="#m3364aa4914" y="177.358979"/>
     <use style="fill:#800080;stroke:#800080;" x="159.095537" xlink:href="#m3364aa4914" y="172.263217"/>
     <use style="fill:#800080;stroke:#800080;" x="162.374876" xlink:href="#m3364aa4914" y="169.998434"/>
     <use style="fill:#800080;stroke:#800080;" x="165.654215" xlink:href="#m3364aa4914" y="160.373106"/>
     <use style="fill:#800080;stroke:#800080;" x="168.933554" xlink:href="#m3364aa4914" y="164.336477"/>
     <use style="fill:#800080;stroke:#800080;" x="172.212893" xlink:href="#m3364aa4914" y="153.012562"/>
     <use style="fill:#800080;stroke:#800080;" x="175.492231" xlink:href="#m3364aa4914" y="149.615387"/>
     <use style="fill:#800080;stroke:#800080;" x="178.77157" xlink:href="#m3364aa4914" y="150.181583"/>
     <use style="fill:#800080;stroke:#800080;" x="182.050909" xlink:href="#m3364aa4914" y="147.350604"/>
     <use style="fill:#800080;stroke:#800080;" x="185.330248" xlink:href="#m3364aa4914" y="141.122451"/>
     <use style="fill:#800080;stroke:#800080;" x="188.609587" xlink:href="#m3364aa4914" y="137.725277"/>
     <use style="fill:#800080;stroke:#800080;" x="191.888926" xlink:href="#m3364aa4914" y="134.894298"/>
     <use style="fill:#800080;stroke:#800080;" x="195.168264" xlink:href="#m3364aa4914" y="136.592885"/>
     <use style="fill:#800080;stroke:#800080;" x="198.447603" xlink:href="#m3364aa4914" y="143.387234"/>
     <use style="fill:#800080;stroke:#800080;" x="201.726942" xlink:href="#m3364aa4914" y="148.482996"/>
     <use style="fill:#800080;stroke:#800080;" x="205.006281" xlink:href="#m3364aa4914" y="146.218213"/>
     <use style="fill:#800080;stroke:#800080;" x="208.28562" xlink:href="#m3364aa4914" y="155.277345"/>
     <use style="fill:#800080;stroke:#800080;" x="211.564959" xlink:href="#m3364aa4914" y="154.144953"/>
     <use style="fill:#800080;stroke:#800080;" x="214.844298" xlink:href="#m3364aa4914" y="150.181583"/>
     <use style="fill:#800080;stroke:#800080;" x="218.123636" xlink:href="#m3364aa4914" y="150.181583"/>
     <use style="fill:#800080;stroke:#800080;" x="221.402975" xlink:href="#m3364aa4914" y="148.482996"/>
     <use style="fill:#800080;stroke:#800080;" x="224.682314" xlink:href="#m3364aa4914" y="146.784409"/>
     <use style="fill:#800080;stroke:#800080;" x="227.961653" xlink:href="#m3364aa4914" y="144.519626"/>
     <use style="fill:#800080;stroke:#800080;" x="231.240992" xlink:href="#m3364aa4914" y="148.482996"/>
     <use style="fill:#800080;stroke:#800080;" x="234.520331" xlink:href="#m3364aa4914" y="138.291472"/>
     <use style="fill:#800080;stroke:#800080;" x="237.799669" xlink:href="#m3364aa4914" y="138.857668"/>
     <use style="fill:#800080;stroke:#800080;" x="241.079008" xlink:href="#m3364aa4914" y="135.460494"/>
     <use style="fill:#800080;stroke:#800080;" x="244.358347" xlink:href="#m3364aa4914" y="129.23234"/>
     <use style="fill:#800080;stroke:#800080;" x="247.637686" xlink:href="#m3364aa4914" y="131.497123"/>
     <use style="fill:#800080;stroke:#800080;" x="250.917025" xlink:href="#m3364aa4914" y="135.460494"/>
     <use style="fill:#800080;stroke:#800080;" x="254.196364" xlink:href="#m3364aa4914" y="127.533753"/>
     <use style="fill:#800080;stroke:#800080;" x="257.475702" xlink:href="#m3364aa4914" y="126.967557"/>
     <use style="fill:#800080;stroke:#800080;" x="260.755041" xlink:href="#m3364aa4914" y="124.136579"/>
     <use style="fill:#800080;stroke:#800080;" x="264.03438" xlink:href="#m3364aa4914" y="120.739404"/>
     <use style="fill:#800080;stroke:#800080;" x="267.313719" xlink:href="#m3364aa4914" y="113.945055"/>
     <use style="fill:#800080;stroke:#800080;" x="270.593058" xlink:href="#m3364aa4914" y="112.246468"/>
     <use style="fill:#800080;stroke:#800080;" x="273.872397" xlink:href="#m3364aa4914" y="111.680272"/>
     <use style="fill:#800080;stroke:#800080;" x="277.151736" xlink:href="#m3364aa4914" y="112.246468"/>
     <use style="fill:#800080;stroke:#800080;" x="280.431074" xlink:href="#m3364aa4914" y="113.37886"/>
     <use style="fill:#800080;stroke:#800080;" x="283.710413" xlink:href="#m3364aa4914" y="115.643643"/>
     <use style="fill:#800080;stroke:#800080;" x="286.989752" xlink:href="#m3364aa4914" y="122.437991"/>
     <use style="fill:#800080;stroke:#800080;" x="290.269091" xlink:href="#m3364aa4914" y="128.099949"/>
     <use style="fill:#800080;stroke:#800080;" x="293.54843" xlink:href="#m3364aa4914" y="127.533753"/>
     <use style="fill:#800080;stroke:#800080;" x="296.827769" xlink:href="#m3364aa4914" y="128.099949"/>
     <use style="fill:#800080;stroke:#800080;" x="300.107107" xlink:href="#m3364aa4914" y="125.835166"/>
     <use style="fill:#800080;stroke:#800080;" x="303.386446" xlink:href="#m3364aa4914" y="138.291472"/>
     <use style="fill:#800080;stroke:#800080;" x="306.665785" xlink:href="#m3364aa4914" y="139.99006"/>
     <use style="fill:#800080;stroke:#800080;" x="309.945124" xlink:href="#m3364aa4914" y="140.556255"/>
     <use style="fill:#800080;stroke:#800080;" x="313.224463" xlink:href="#m3364aa4914" y="138.291472"/>
     <use style="fill:#800080;stroke:#800080;" x="316.503802" xlink:href="#m3364aa4914" y="136.026689"/>
     <use style="fill:#800080;stroke:#800080;" x="319.78314" xlink:href="#m3364aa4914" y="140.556255"/>
     <use style="fill:#800080;stroke:#800080;" x="323.062479" xlink:href="#m3364aa4914" y="137.725277"/>
     <use style="fill:#800080;stroke:#800080;" x="326.341818" xlink:href="#m3364aa4914" y="143.387234"/>
     <use style="fill:#800080;stroke:#800080;" x="329.621157" xlink:href="#m3364aa4914" y="140.556255"/>
     <use style="fill:#800080;stroke:#800080;" x="332.900496" xlink:href="#m3364aa4914" y="137.159081"/>
     <use style="fill:#800080;stroke:#800080;" x="336.179835" xlink:href="#m3364aa4914" y="147.350604"/>
     <use style="fill:#800080;stroke:#800080;" x="339.459174" xlink:href="#m3364aa4914" y="139.423864"/>
     <use style="fill:#800080;stroke:#800080;" x="342.738512" xlink:href="#m3364aa4914" y="141.122451"/>
     <use style="fill:#800080;stroke:#800080;" x="346.017851" xlink:href="#m3364aa4914" y="142.821038"/>
     <use style="fill:#800080;stroke:#800080;" x="349.29719" xlink:href="#m3364aa4914" y="135.460494"/>
     <use style="fill:#800080;stroke:#800080;" x="352.576529" xlink:href="#m3364aa4914" y="133.195711"/>
     <use style="fill:#800080;stroke:#800080;" x="355.855868" xlink:href="#m3364aa4914" y="133.195711"/>
     <use style="fill:#800080;stroke:#800080;" x="359.135207" xlink:href="#m3364aa4914" y="129.798536"/>
     <use style="fill:#800080;stroke:#800080;" x="362.414545" xlink:href="#m3364aa4914" y="133.195711"/>
     <use style="fill:#800080;stroke:#800080;" x="365.693884" xlink:href="#m3364aa4914" y="125.26897"/>
     <use style="fill:#800080;stroke:#800080;" x="368.973223" xlink:href="#m3364aa4914" y="127.533753"/>
     <use style="fill:#800080;stroke:#800080;" x="372.252562" xlink:href="#m3364aa4914" y="129.798536"/>
     <use style="fill:#800080;stroke:#800080;" x="375.531901" xlink:href="#m3364aa4914" y="127.533753"/>
     <use style="fill:#800080;stroke:#800080;" x="378.81124" xlink:href="#m3364aa4914" y="124.702774"/>
     <use style="fill:#800080;stroke:#800080;" x="382.090579" xlink:href="#m3364aa4914" y="123.570383"/>
     <use style="fill:#800080;stroke:#800080;" x="385.369917" xlink:href="#m3364aa4914" y="115.643643"/>
     <use style="fill:#800080;stroke:#800080;" x="388.649256" xlink:href="#m3364aa4914" y="120.173209"/>
     <use style="fill:#800080;stroke:#800080;" x="391.928595" xlink:href="#m3364aa4914" y="123.570383"/>
     <use style="fill:#800080;stroke:#800080;" x="395.207934" xlink:href="#m3364aa4914" y="121.3056"/>
    </g>
   </g>
   <g id="patch_7">
    <path d="M 57.6 307.584 
L 57.6 41.472 
" style="fill:none;stroke:#000000;stroke-linecap:square;stroke-linejoin:miter;stroke-width:0.8;"/>
   </g>
   <g id="patch_8">
    <path d="M 414.72 307.584 
L 414.72 41.472 
" style="fill:none;stroke:#000000;stroke-linecap:square;stroke-linejoin:miter;stroke-width:0.8;"/>
   </g>
   <g id="patch_9">
    <path d="M 57.6 307.584 
L 414.72 307.584 
" style="fill:none;stroke:#000000;stroke-linecap:square;stroke-linejoin:miter;stroke-width:0.8;"/>
   </g>
   <g id="patch_10">
    <path d="M 57.6 41.472 
L 414.72 41.472 
" style="fill:none;stroke:#000000;stroke-linecap:square;stroke-linejoin:miter;stroke-width:0.8;"/>
   </g>
   <g id="legend_1">
    <g id="patch_11">
     <path d="M 64.6 93.506375 
L 358.295313 93.506375 
Q 360.295313 93.506375 360.295313 91.506375 
L 360.295313 48.472 
Q 360.295313 46.472 358.295313 46.472 
L 64.6 46.472 
Q 62.6 46.472 62.6 48.472 
L 62.6 91.506375 
Q 62.6 93.506375 64.6 93.506375 
z
" style="fill:#ffffff;opacity:0.8;stroke:#cccccc;stroke-linejoin:miter;"/>
    </g>
    <g id="line2d_23">
     <path d="M 66.6 54.570438 
L 86.6 54.570438 
" style="fill:none;stroke:#0000ff;stroke-linecap:square;stroke-width:1.5;"/>
    </g>
    <g id="line2d_24">
     <g>
      <use style="fill:#0000ff;stroke:#0000ff;" x="76.6" xlink:href="#mc78cf7d6bb" y="54.570438"/>
     </g>
    </g>
    <g id="text_23">
     <!-- Number of SuperEdges betwween layer1 and layer4 -->
     <defs>
      <path d="M 18.3125 70.21875 
L 18.3125 54.6875 
L 36.8125 54.6875 
L 36.8125 47.703125 
L 18.3125 47.703125 
L 18.3125 18.015625 
Q 18.3125 11.328125 20.140625 9.421875 
Q 21.96875 7.515625 27.59375 7.515625 
L 36.8125 7.515625 
L 36.8125 0 
L 27.59375 0 
Q 17.1875 0 13.234375 3.875 
Q 9.28125 7.765625 9.28125 18.015625 
L 9.28125 47.703125 
L 2.6875 47.703125 
L 2.6875 54.6875 
L 9.28125 54.6875 
L 9.28125 70.21875 
z
" id="DejaVuSans-116"/>
      <path d="M 4.203125 54.6875 
L 13.1875 54.6875 
L 24.421875 12.015625 
L 35.59375 54.6875 
L 46.1875 54.6875 
L 57.421875 12.015625 
L 68.609375 54.6875 
L 77.59375 54.6875 
L 63.28125 0 
L 52.6875 0 
L 40.921875 44.828125 
L 29.109375 0 
L 18.5 0 
z
" id="DejaVuSans-119"/>
      <path d="M 9.421875 75.984375 
L 18.40625 75.984375 
L 18.40625 0 
L 9.421875 0 
z
" id="DejaVuSans-108"/>
     </defs>
     <g transform="translate(94.6 58.070438)scale(0.1 -0.1)">
      <use xlink:href="#DejaVuSans-78"/>
      <use x="74.804688" xlink:href="#DejaVuSans-117"/>
      <use x="138.183594" xlink:href="#DejaVuSans-109"/>
      <use x="235.595703" xlink:href="#DejaVuSans-98"/>
      <use x="299.072266" xlink:href="#DejaVuSans-101"/>
      <use x="360.595703" xlink:href="#DejaVuSans-114"/>
      <use x="401.708984" xlink:href="#DejaVuSans-32"/>
      <use x="433.496094" xlink:href="#DejaVuSans-111"/>
      <use x="494.677734" xlink:href="#DejaVuSans-102"/>
      <use x="529.882812" xlink:href="#DejaVuSans-32"/>
      <use x="561.669922" xlink:href="#DejaVuSans-83"/>
      <use x="625.146484" xlink:href="#DejaVuSans-117"/>
      <use x="688.525391" xlink:href="#DejaVuSans-112"/>
      <use x="752.001953" xlink:href="#DejaVuSans-101"/>
      <use x="813.525391" xlink:href="#DejaVuSans-114"/>
      <use x="854.638672" xlink:href="#DejaVuSans-69"/>
      <use x="917.822266" xlink:href="#DejaVuSans-100"/>
      <use x="981.298828" xlink:href="#DejaVuSans-103"/>
      <use x="1044.775391" xlink:href="#DejaVuSans-101"/>
      <use x="1106.298828" xlink:href="#DejaVuSans-115"/>
      <use x="1158.398438" xlink:href="#DejaVuSans-32"/>
      <use x="1190.185547" xlink:href="#DejaVuSans-98"/>
      <use x="1253.662109" xlink:href="#DejaVuSans-101"/>
      <use x="1315.185547" xlink:href="#DejaVuSans-116"/>
      <use x="1354.394531" xlink:href="#DejaVuSans-119"/>
      <use x="1436.181641" xlink:href="#DejaVuSans-119"/>
      <use x="1517.96875" xlink:href="#DejaVuSans-101"/>
      <use x="1579.492188" xlink:href="#DejaVuSans-101"/>
      <use x="1641.015625" xlink:href="#DejaVuSans-110"/>
      <use x="1704.394531" xlink:href="#DejaVuSans-32"/>
      <use x="1736.181641" xlink:href="#DejaVuSans-108"/>
      <use x="1763.964844" xlink:href="#DejaVuSans-97"/>
      <use x="1825.244141" xlink:href="#DejaVuSans-121"/>
      <use x="1884.423828" xlink:href="#DejaVuSans-101"/>
      <use x="1945.947266" xlink:href="#DejaVuSans-114"/>
      <use x="1987.060547" xlink:href="#DejaVuSans-49"/>
      <use x="2050.683594" xlink:href="#DejaVuSans-32"/>
      <use x="2082.470703" xlink:href="#DejaVuSans-97"/>
      <use x="2143.75" xlink:href="#DejaVuSans-110"/>
      <use x="2207.128906" xlink:href="#DejaVuSans-100"/>
      <use x="2270.605469" xlink:href="#DejaVuSans-32"/>
      <use x="2302.392578" xlink:href="#DejaVuSans-108"/>
      <use x="2330.175781" xlink:href="#DejaVuSans-97"/>
      <use x="2391.455078" xlink:href="#DejaVuSans-121"/>
      <use x="2450.634766" xlink:href="#DejaVuSans-101"/>
      <use x="2512.158203" xlink:href="#DejaVuSans-114"/>
      <use x="2553.271484" xlink:href="#DejaVuSans-52"/>
     </g>
    </g>
    <g id="line2d_25">
     <path d="M 66.6 69.248563 
L 86.6 69.248563 
" style="fill:none;stroke:#ff0000;stroke-linecap:square;stroke-width:1.5;"/>
    </g>
    <g id="line2d_26">
     <g>
      <use style="fill:#ff0000;stroke:#ff0000;" x="76.6" xlink:href="#ma015863fef" y="69.248563"/>
     </g>
    </g>
    <g id="text_24">
     <!-- IO[1][4] -->
     <defs>
      <path d="M 39.40625 66.21875 
Q 28.65625 66.21875 22.328125 58.203125 
Q 16.015625 50.203125 16.015625 36.375 
Q 16.015625 22.609375 22.328125 14.59375 
Q 28.65625 6.59375 39.40625 6.59375 
Q 50.140625 6.59375 56.421875 14.59375 
Q 62.703125 22.609375 62.703125 36.375 
Q 62.703125 50.203125 56.421875 58.203125 
Q 50.140625 66.21875 39.40625 66.21875 
z
M 39.40625 74.21875 
Q 54.734375 74.21875 63.90625 63.9375 
Q 73.09375 53.65625 73.09375 36.375 
Q 73.09375 19.140625 63.90625 8.859375 
Q 54.734375 -1.421875 39.40625 -1.421875 
Q 24.03125 -1.421875 14.8125 8.828125 
Q 5.609375 19.09375 5.609375 36.375 
Q 5.609375 53.65625 14.8125 63.9375 
Q 24.03125 74.21875 39.40625 74.21875 
z
" id="DejaVuSans-79"/>
      <path d="M 8.59375 75.984375 
L 29.296875 75.984375 
L 29.296875 69 
L 17.578125 69 
L 17.578125 -6.203125 
L 29.296875 -6.203125 
L 29.296875 -13.1875 
L 8.59375 -13.1875 
z
" id="DejaVuSans-91"/>
      <path d="M 30.421875 75.984375 
L 30.421875 -13.1875 
L 9.71875 -13.1875 
L 9.71875 -6.203125 
L 21.390625 -6.203125 
L 21.390625 69 
L 9.71875 69 
L 9.71875 75.984375 
z
" id="DejaVuSans-93"/>
     </defs>
     <g transform="translate(94.6 72.748563)scale(0.1 -0.1)">
      <use xlink:href="#DejaVuSans-73"/>
      <use x="29.492188" xlink:href="#DejaVuSans-79"/>
      <use x="108.203125" xlink:href="#DejaVuSans-91"/>
      <use x="147.216797" xlink:href="#DejaVuSans-49"/>
      <use x="210.839844" xlink:href="#DejaVuSans-93"/>
      <use x="249.853516" xlink:href="#DejaVuSans-91"/>
      <use x="288.867188" xlink:href="#DejaVuSans-52"/>
      <use x="352.490234" xlink:href="#DejaVuSans-93"/>
     </g>
    </g>
    <g id="line2d_27">
     <path d="M 66.6 83.926688 
L 86.6 83.926688 
" style="fill:none;stroke:#800080;stroke-linecap:square;stroke-width:1.5;"/>
    </g>
    <g id="line2d_28">
     <g>
      <use style="fill:#800080;stroke:#800080;" x="76.6" xlink:href="#m3364aa4914" y="83.926688"/>
     </g>
    </g>
    <g id="text_25">
     <!-- IO[4][1] -->
     <g transform="translate(94.6 87.426688)scale(0.1 -0.1)">
      <use xlink:href="#DejaVuSans-73"/>
      <use x="29.492188" xlink:href="#DejaVuSans-79"/>
      <use x="108.203125" xlink:href="#DejaVuSans-91"/>
      <use x="147.216797" xlink:href="#DejaVuSans-52"/>
      <use x="210.839844" xlink:href="#DejaVuSans-93"/>
      <use x="249.853516" xlink:href="#DejaVuSans-91"/>
      <use x="288.867188" xlink:href="#DejaVuSans-49"/>
      <use x="352.490234" xlink:href="#DejaVuSans-93"/>
     </g>
    </g>
   </g>
  </g>
 </g>
 <defs>
  <clipPath id="pda92aedd8e">
   <rect height="266.112" width="357.12" x="57.6" y="41.472"/>
  </clipPath>
 </defs>
</svg>
