<?xml version="1.0" encoding="utf-8" standalone="no"?>
<!DOCTYPE svg PUBLIC "-//W3C//DTD SVG 1.1//EN"
  "http://www.w3.org/Graphics/SVG/1.1/DTD/svg11.dtd">
<!-- Created with matplotlib (https://matplotlib.org/) -->
<svg height="345.6pt" version="1.1" viewBox="0 0 460.8 345.6" width="460.8pt" xmlns="http://www.w3.org/2000/svg" xmlns:xlink="http://www.w3.org/1999/xlink">
 <defs>
  <style type="text/css">
*{stroke-linecap:butt;stroke-linejoin:round;}
  </style>
 </defs>
 <g id="figure_1">
  <g id="patch_1">
   <path d="M 0 345.6 
L 460.8 345.6 
L 460.8 0 
L 0 0 
z
" style="fill:#ffffff;"/>
  </g>
  <g id="axes_1">
   <g id="patch_2">
    <path d="M 57.6 307.584 
L 414.72 307.584 
L 414.72 41.472 
L 57.6 41.472 
z
" style="fill:#ffffff;"/>
   </g>
   <g id="matplotlib.axis_1">
    <g id="xtick_1">
     <g id="line2d_1">
      <defs>
       <path d="M 0 0 
L 0 3.5 
" id="m2ad98b506e" style="stroke:#000000;stroke-width:0.8;"/>
      </defs>
      <g>
       <use style="stroke:#000000;stroke-width:0.8;" x="73.832727" xlink:href="#m2ad98b506e" y="307.584"/>
      </g>
     </g>
     <g id="text_1">
      <!-- 0 -->
      <defs>
       <path d="M 31.78125 66.40625 
Q 24.171875 66.40625 20.328125 58.90625 
Q 16.5 51.421875 16.5 36.375 
Q 16.5 21.390625 20.328125 13.890625 
Q 24.171875 6.390625 31.78125 6.390625 
Q 39.453125 6.390625 43.28125 13.890625 
Q 47.125 21.390625 47.125 36.375 
Q 47.125 51.421875 43.28125 58.90625 
Q 39.453125 66.40625 31.78125 66.40625 
z
M 31.78125 74.21875 
Q 44.046875 74.21875 50.515625 64.515625 
Q 56.984375 54.828125 56.984375 36.375 
Q 56.984375 17.96875 50.515625 8.265625 
Q 44.046875 -1.421875 31.78125 -1.421875 
Q 19.53125 -1.421875 13.0625 8.265625 
Q 6.59375 17.96875 6.59375 36.375 
Q 6.59375 54.828125 13.0625 64.515625 
Q 19.53125 74.21875 31.78125 74.21875 
z
" id="DejaVuSans-48"/>
      </defs>
      <g transform="translate(70.651477 322.182437)scale(0.1 -0.1)">
       <use xlink:href="#DejaVuSans-48"/>
      </g>
     </g>
    </g>
    <g id="xtick_2">
     <g id="line2d_2">
      <g>
       <use style="stroke:#000000;stroke-width:0.8;" x="138.763636" xlink:href="#m2ad98b506e" y="307.584"/>
      </g>
     </g>
     <g id="text_2">
      <!-- 10 -->
      <defs>
       <path d="M 12.40625 8.296875 
L 28.515625 8.296875 
L 28.515625 63.921875 
L 10.984375 60.40625 
L 10.984375 69.390625 
L 28.421875 72.90625 
L 38.28125 72.90625 
L 38.28125 8.296875 
L 54.390625 8.296875 
L 54.390625 0 
L 12.40625 0 
z
" id="DejaVuSans-49"/>
      </defs>
      <g transform="translate(132.401136 322.182437)scale(0.1 -0.1)">
       <use xlink:href="#DejaVuSans-49"/>
       <use x="63.623047" xlink:href="#DejaVuSans-48"/>
      </g>
     </g>
    </g>
    <g id="xtick_3">
     <g id="line2d_3">
      <g>
       <use style="stroke:#000000;stroke-width:0.8;" x="203.694545" xlink:href="#m2ad98b506e" y="307.584"/>
      </g>
     </g>
     <g id="text_3">
      <!-- 20 -->
      <defs>
       <path d="M 19.1875 8.296875 
L 53.609375 8.296875 
L 53.609375 0 
L 7.328125 0 
L 7.328125 8.296875 
Q 12.9375 14.109375 22.625 23.890625 
Q 32.328125 33.6875 34.8125 36.53125 
Q 39.546875 41.84375 41.421875 45.53125 
Q 43.3125 49.21875 43.3125 52.78125 
Q 43.3125 58.59375 39.234375 62.25 
Q 35.15625 65.921875 28.609375 65.921875 
Q 23.96875 65.921875 18.8125 64.3125 
Q 13.671875 62.703125 7.8125 59.421875 
L 7.8125 69.390625 
Q 13.765625 71.78125 18.9375 73 
Q 24.125 74.21875 28.421875 74.21875 
Q 39.75 74.21875 46.484375 68.546875 
Q 53.21875 62.890625 53.21875 53.421875 
Q 53.21875 48.921875 51.53125 44.890625 
Q 49.859375 40.875 45.40625 35.40625 
Q 44.1875 33.984375 37.640625 27.21875 
Q 31.109375 20.453125 19.1875 8.296875 
z
" id="DejaVuSans-50"/>
      </defs>
      <g transform="translate(197.332045 322.182437)scale(0.1 -0.1)">
       <use xlink:href="#DejaVuSans-50"/>
       <use x="63.623047" xlink:href="#DejaVuSans-48"/>
      </g>
     </g>
    </g>
    <g id="xtick_4">
     <g id="line2d_4">
      <g>
       <use style="stroke:#000000;stroke-width:0.8;" x="268.625455" xlink:href="#m2ad98b506e" y="307.584"/>
      </g>
     </g>
     <g id="text_4">
      <!-- 30 -->
      <defs>
       <path d="M 40.578125 39.3125 
Q 47.65625 37.796875 51.625 33 
Q 55.609375 28.21875 55.609375 21.1875 
Q 55.609375 10.40625 48.1875 4.484375 
Q 40.765625 -1.421875 27.09375 -1.421875 
Q 22.515625 -1.421875 17.65625 -0.515625 
Q 12.796875 0.390625 7.625 2.203125 
L 7.625 11.71875 
Q 11.71875 9.328125 16.59375 8.109375 
Q 21.484375 6.890625 26.8125 6.890625 
Q 36.078125 6.890625 40.9375 10.546875 
Q 45.796875 14.203125 45.796875 21.1875 
Q 45.796875 27.640625 41.28125 31.265625 
Q 36.765625 34.90625 28.71875 34.90625 
L 20.21875 34.90625 
L 20.21875 43.015625 
L 29.109375 43.015625 
Q 36.375 43.015625 40.234375 45.921875 
Q 44.09375 48.828125 44.09375 54.296875 
Q 44.09375 59.90625 40.109375 62.90625 
Q 36.140625 65.921875 28.71875 65.921875 
Q 24.65625 65.921875 20.015625 65.03125 
Q 15.375 64.15625 9.8125 62.3125 
L 9.8125 71.09375 
Q 15.4375 72.65625 20.34375 73.4375 
Q 25.25 74.21875 29.59375 74.21875 
Q 40.828125 74.21875 47.359375 69.109375 
Q 53.90625 64.015625 53.90625 55.328125 
Q 53.90625 49.265625 50.4375 45.09375 
Q 46.96875 40.921875 40.578125 39.3125 
z
" id="DejaVuSans-51"/>
      </defs>
      <g transform="translate(262.262955 322.182437)scale(0.1 -0.1)">
       <use xlink:href="#DejaVuSans-51"/>
       <use x="63.623047" xlink:href="#DejaVuSans-48"/>
      </g>
     </g>
    </g>
    <g id="xtick_5">
     <g id="line2d_5">
      <g>
       <use style="stroke:#000000;stroke-width:0.8;" x="333.556364" xlink:href="#m2ad98b506e" y="307.584"/>
      </g>
     </g>
     <g id="text_5">
      <!-- 40 -->
      <defs>
       <path d="M 37.796875 64.3125 
L 12.890625 25.390625 
L 37.796875 25.390625 
z
M 35.203125 72.90625 
L 47.609375 72.90625 
L 47.609375 25.390625 
L 58.015625 25.390625 
L 58.015625 17.1875 
L 47.609375 17.1875 
L 47.609375 0 
L 37.796875 0 
L 37.796875 17.1875 
L 4.890625 17.1875 
L 4.890625 26.703125 
z
" id="DejaVuSans-52"/>
      </defs>
      <g transform="translate(327.193864 322.182437)scale(0.1 -0.1)">
       <use xlink:href="#DejaVuSans-52"/>
       <use x="63.623047" xlink:href="#DejaVuSans-48"/>
      </g>
     </g>
    </g>
    <g id="xtick_6">
     <g id="line2d_6">
      <g>
       <use style="stroke:#000000;stroke-width:0.8;" x="398.487273" xlink:href="#m2ad98b506e" y="307.584"/>
      </g>
     </g>
     <g id="text_6">
      <!-- 50 -->
      <defs>
       <path d="M 10.796875 72.90625 
L 49.515625 72.90625 
L 49.515625 64.59375 
L 19.828125 64.59375 
L 19.828125 46.734375 
Q 21.96875 47.46875 24.109375 47.828125 
Q 26.265625 48.1875 28.421875 48.1875 
Q 40.625 48.1875 47.75 41.5 
Q 54.890625 34.8125 54.890625 23.390625 
Q 54.890625 11.625 47.5625 5.09375 
Q 40.234375 -1.421875 26.90625 -1.421875 
Q 22.3125 -1.421875 17.546875 -0.640625 
Q 12.796875 0.140625 7.71875 1.703125 
L 7.71875 11.625 
Q 12.109375 9.234375 16.796875 8.0625 
Q 21.484375 6.890625 26.703125 6.890625 
Q 35.15625 6.890625 40.078125 11.328125 
Q 45.015625 15.765625 45.015625 23.390625 
Q 45.015625 31 40.078125 35.4375 
Q 35.15625 39.890625 26.703125 39.890625 
Q 22.75 39.890625 18.8125 39.015625 
Q 14.890625 38.140625 10.796875 36.28125 
z
" id="DejaVuSans-53"/>
      </defs>
      <g transform="translate(392.124773 322.182437)scale(0.1 -0.1)">
       <use xlink:href="#DejaVuSans-53"/>
       <use x="63.623047" xlink:href="#DejaVuSans-48"/>
      </g>
     </g>
    </g>
    <g id="text_7">
     <!-- Period of Change -->
     <defs>
      <path d="M 19.671875 64.796875 
L 19.671875 37.40625 
L 32.078125 37.40625 
Q 38.96875 37.40625 42.71875 40.96875 
Q 46.484375 44.53125 46.484375 51.125 
Q 46.484375 57.671875 42.71875 61.234375 
Q 38.96875 64.796875 32.078125 64.796875 
z
M 9.8125 72.90625 
L 32.078125 72.90625 
Q 44.34375 72.90625 50.609375 67.359375 
Q 56.890625 61.8125 56.890625 51.125 
Q 56.890625 40.328125 50.609375 34.8125 
Q 44.34375 29.296875 32.078125 29.296875 
L 19.671875 29.296875 
L 19.671875 0 
L 9.8125 0 
z
" id="DejaVuSans-80"/>
      <path d="M 56.203125 29.59375 
L 56.203125 25.203125 
L 14.890625 25.203125 
Q 15.484375 15.921875 20.484375 11.0625 
Q 25.484375 6.203125 34.421875 6.203125 
Q 39.59375 6.203125 44.453125 7.46875 
Q 49.3125 8.734375 54.109375 11.28125 
L 54.109375 2.78125 
Q 49.265625 0.734375 44.1875 -0.34375 
Q 39.109375 -1.421875 33.890625 -1.421875 
Q 20.796875 -1.421875 13.15625 6.1875 
Q 5.515625 13.8125 5.515625 26.8125 
Q 5.515625 40.234375 12.765625 48.109375 
Q 20.015625 56 32.328125 56 
Q 43.359375 56 49.78125 48.890625 
Q 56.203125 41.796875 56.203125 29.59375 
z
M 47.21875 32.234375 
Q 47.125 39.59375 43.09375 43.984375 
Q 39.0625 48.390625 32.421875 48.390625 
Q 24.90625 48.390625 20.390625 44.140625 
Q 15.875 39.890625 15.1875 32.171875 
z
" id="DejaVuSans-101"/>
      <path d="M 41.109375 46.296875 
Q 39.59375 47.171875 37.8125 47.578125 
Q 36.03125 48 33.890625 48 
Q 26.265625 48 22.1875 43.046875 
Q 18.109375 38.09375 18.109375 28.8125 
L 18.109375 0 
L 9.078125 0 
L 9.078125 54.6875 
L 18.109375 54.6875 
L 18.109375 46.1875 
Q 20.953125 51.171875 25.484375 53.578125 
Q 30.03125 56 36.53125 56 
Q 37.453125 56 38.578125 55.875 
Q 39.703125 55.765625 41.0625 55.515625 
z
" id="DejaVuSans-114"/>
      <path d="M 9.421875 54.6875 
L 18.40625 54.6875 
L 18.40625 0 
L 9.421875 0 
z
M 9.421875 75.984375 
L 18.40625 75.984375 
L 18.40625 64.59375 
L 9.421875 64.59375 
z
" id="DejaVuSans-105"/>
      <path d="M 30.609375 48.390625 
Q 23.390625 48.390625 19.1875 42.75 
Q 14.984375 37.109375 14.984375 27.296875 
Q 14.984375 17.484375 19.15625 11.84375 
Q 23.34375 6.203125 30.609375 6.203125 
Q 37.796875 6.203125 41.984375 11.859375 
Q 46.1875 17.53125 46.1875 27.296875 
Q 46.1875 37.015625 41.984375 42.703125 
Q 37.796875 48.390625 30.609375 48.390625 
z
M 30.609375 56 
Q 42.328125 56 49.015625 48.375 
Q 55.71875 40.765625 55.71875 27.296875 
Q 55.71875 13.875 49.015625 6.21875 
Q 42.328125 -1.421875 30.609375 -1.421875 
Q 18.84375 -1.421875 12.171875 6.21875 
Q 5.515625 13.875 5.515625 27.296875 
Q 5.515625 40.765625 12.171875 48.375 
Q 18.84375 56 30.609375 56 
z
" id="DejaVuSans-111"/>
      <path d="M 45.40625 46.390625 
L 45.40625 75.984375 
L 54.390625 75.984375 
L 54.390625 0 
L 45.40625 0 
L 45.40625 8.203125 
Q 42.578125 3.328125 38.25 0.953125 
Q 33.9375 -1.421875 27.875 -1.421875 
Q 17.96875 -1.421875 11.734375 6.484375 
Q 5.515625 14.40625 5.515625 27.296875 
Q 5.515625 40.1875 11.734375 48.09375 
Q 17.96875 56 27.875 56 
Q 33.9375 56 38.25 53.625 
Q 42.578125 51.265625 45.40625 46.390625 
z
M 14.796875 27.296875 
Q 14.796875 17.390625 18.875 11.75 
Q 22.953125 6.109375 30.078125 6.109375 
Q 37.203125 6.109375 41.296875 11.75 
Q 45.40625 17.390625 45.40625 27.296875 
Q 45.40625 37.203125 41.296875 42.84375 
Q 37.203125 48.484375 30.078125 48.484375 
Q 22.953125 48.484375 18.875 42.84375 
Q 14.796875 37.203125 14.796875 27.296875 
z
" id="DejaVuSans-100"/>
      <path id="DejaVuSans-32"/>
      <path d="M 37.109375 75.984375 
L 37.109375 68.5 
L 28.515625 68.5 
Q 23.6875 68.5 21.796875 66.546875 
Q 19.921875 64.59375 19.921875 59.515625 
L 19.921875 54.6875 
L 34.71875 54.6875 
L 34.71875 47.703125 
L 19.921875 47.703125 
L 19.921875 0 
L 10.890625 0 
L 10.890625 47.703125 
L 2.296875 47.703125 
L 2.296875 54.6875 
L 10.890625 54.6875 
L 10.890625 58.5 
Q 10.890625 67.625 15.140625 71.796875 
Q 19.390625 75.984375 28.609375 75.984375 
z
" id="DejaVuSans-102"/>
      <path d="M 64.40625 67.28125 
L 64.40625 56.890625 
Q 59.421875 61.53125 53.78125 63.8125 
Q 48.140625 66.109375 41.796875 66.109375 
Q 29.296875 66.109375 22.65625 58.46875 
Q 16.015625 50.828125 16.015625 36.375 
Q 16.015625 21.96875 22.65625 14.328125 
Q 29.296875 6.6875 41.796875 6.6875 
Q 48.140625 6.6875 53.78125 8.984375 
Q 59.421875 11.28125 64.40625 15.921875 
L 64.40625 5.609375 
Q 59.234375 2.09375 53.4375 0.328125 
Q 47.65625 -1.421875 41.21875 -1.421875 
Q 24.65625 -1.421875 15.125 8.703125 
Q 5.609375 18.84375 5.609375 36.375 
Q 5.609375 53.953125 15.125 64.078125 
Q 24.65625 74.21875 41.21875 74.21875 
Q 47.75 74.21875 53.53125 72.484375 
Q 59.328125 70.75 64.40625 67.28125 
z
" id="DejaVuSans-67"/>
      <path d="M 54.890625 33.015625 
L 54.890625 0 
L 45.90625 0 
L 45.90625 32.71875 
Q 45.90625 40.484375 42.875 44.328125 
Q 39.84375 48.1875 33.796875 48.1875 
Q 26.515625 48.1875 22.3125 43.546875 
Q 18.109375 38.921875 18.109375 30.90625 
L 18.109375 0 
L 9.078125 0 
L 9.078125 75.984375 
L 18.109375 75.984375 
L 18.109375 46.1875 
Q 21.34375 51.125 25.703125 53.5625 
Q 30.078125 56 35.796875 56 
Q 45.21875 56 50.046875 50.171875 
Q 54.890625 44.34375 54.890625 33.015625 
z
" id="DejaVuSans-104"/>
      <path d="M 34.28125 27.484375 
Q 23.390625 27.484375 19.1875 25 
Q 14.984375 22.515625 14.984375 16.5 
Q 14.984375 11.71875 18.140625 8.90625 
Q 21.296875 6.109375 26.703125 6.109375 
Q 34.1875 6.109375 38.703125 11.40625 
Q 43.21875 16.703125 43.21875 25.484375 
L 43.21875 27.484375 
z
M 52.203125 31.203125 
L 52.203125 0 
L 43.21875 0 
L 43.21875 8.296875 
Q 40.140625 3.328125 35.546875 0.953125 
Q 30.953125 -1.421875 24.3125 -1.421875 
Q 15.921875 -1.421875 10.953125 3.296875 
Q 6 8.015625 6 15.921875 
Q 6 25.140625 12.171875 29.828125 
Q 18.359375 34.515625 30.609375 34.515625 
L 43.21875 34.515625 
L 43.21875 35.40625 
Q 43.21875 41.609375 39.140625 45 
Q 35.0625 48.390625 27.6875 48.390625 
Q 23 48.390625 18.546875 47.265625 
Q 14.109375 46.140625 10.015625 43.890625 
L 10.015625 52.203125 
Q 14.9375 54.109375 19.578125 55.046875 
Q 24.21875 56 28.609375 56 
Q 40.484375 56 46.34375 49.84375 
Q 52.203125 43.703125 52.203125 31.203125 
z
" id="DejaVuSans-97"/>
      <path d="M 54.890625 33.015625 
L 54.890625 0 
L 45.90625 0 
L 45.90625 32.71875 
Q 45.90625 40.484375 42.875 44.328125 
Q 39.84375 48.1875 33.796875 48.1875 
Q 26.515625 48.1875 22.3125 43.546875 
Q 18.109375 38.921875 18.109375 30.90625 
L 18.109375 0 
L 9.078125 0 
L 9.078125 54.6875 
L 18.109375 54.6875 
L 18.109375 46.1875 
Q 21.34375 51.125 25.703125 53.5625 
Q 30.078125 56 35.796875 56 
Q 45.21875 56 50.046875 50.171875 
Q 54.890625 44.34375 54.890625 33.015625 
z
" id="DejaVuSans-110"/>
      <path d="M 45.40625 27.984375 
Q 45.40625 37.75 41.375 43.109375 
Q 37.359375 48.484375 30.078125 48.484375 
Q 22.859375 48.484375 18.828125 43.109375 
Q 14.796875 37.75 14.796875 27.984375 
Q 14.796875 18.265625 18.828125 12.890625 
Q 22.859375 7.515625 30.078125 7.515625 
Q 37.359375 7.515625 41.375 12.890625 
Q 45.40625 18.265625 45.40625 27.984375 
z
M 54.390625 6.78125 
Q 54.390625 -7.171875 48.1875 -13.984375 
Q 42 -20.796875 29.203125 -20.796875 
Q 24.46875 -20.796875 20.265625 -20.09375 
Q 16.0625 -19.390625 12.109375 -17.921875 
L 12.109375 -9.1875 
Q 16.0625 -11.328125 19.921875 -12.34375 
Q 23.78125 -13.375 27.78125 -13.375 
Q 36.625 -13.375 41.015625 -8.765625 
Q 45.40625 -4.15625 45.40625 5.171875 
L 45.40625 9.625 
Q 42.625 4.78125 38.28125 2.390625 
Q 33.9375 0 27.875 0 
Q 17.828125 0 11.671875 7.65625 
Q 5.515625 15.328125 5.515625 27.984375 
Q 5.515625 40.671875 11.671875 48.328125 
Q 17.828125 56 27.875 56 
Q 33.9375 56 38.28125 53.609375 
Q 42.625 51.21875 45.40625 46.390625 
L 45.40625 54.6875 
L 54.390625 54.6875 
z
" id="DejaVuSans-103"/>
     </defs>
     <g transform="translate(193.430312 335.860562)scale(0.1 -0.1)">
      <use xlink:href="#DejaVuSans-80"/>
      <use x="56.677734" xlink:href="#DejaVuSans-101"/>
      <use x="118.201172" xlink:href="#DejaVuSans-114"/>
      <use x="159.314453" xlink:href="#DejaVuSans-105"/>
      <use x="187.097656" xlink:href="#DejaVuSans-111"/>
      <use x="248.279297" xlink:href="#DejaVuSans-100"/>
      <use x="311.755859" xlink:href="#DejaVuSans-32"/>
      <use x="343.542969" xlink:href="#DejaVuSans-111"/>
      <use x="404.724609" xlink:href="#DejaVuSans-102"/>
      <use x="439.929688" xlink:href="#DejaVuSans-32"/>
      <use x="471.716797" xlink:href="#DejaVuSans-67"/>
      <use x="541.541016" xlink:href="#DejaVuSans-104"/>
      <use x="604.919922" xlink:href="#DejaVuSans-97"/>
      <use x="666.199219" xlink:href="#DejaVuSans-110"/>
      <use x="729.578125" xlink:href="#DejaVuSans-103"/>
      <use x="793.054688" xlink:href="#DejaVuSans-101"/>
     </g>
    </g>
   </g>
   <g id="matplotlib.axis_2">
    <g id="ytick_1">
     <g id="line2d_7">
      <defs>
       <path d="M 0 0 
L -3.5 0 
" id="mc748952bef" style="stroke:#000000;stroke-width:0.8;"/>
      </defs>
      <g>
       <use style="stroke:#000000;stroke-width:0.8;" x="57.6" xlink:href="#mc748952bef" y="295.488"/>
      </g>
     </g>
     <g id="text_8">
      <!-- 10 -->
      <g style="fill:#0000ff;" transform="translate(37.875 299.287219)scale(0.1 -0.1)">
       <use xlink:href="#DejaVuSans-49"/>
       <use x="63.623047" xlink:href="#DejaVuSans-48"/>
      </g>
     </g>
    </g>
    <g id="ytick_2">
     <g id="line2d_8">
      <g>
       <use style="stroke:#000000;stroke-width:0.8;" x="57.6" xlink:href="#mc748952bef" y="247.104"/>
      </g>
     </g>
     <g id="text_9">
      <!-- 20 -->
      <g style="fill:#0000ff;" transform="translate(37.875 250.903219)scale(0.1 -0.1)">
       <use xlink:href="#DejaVuSans-50"/>
       <use x="63.623047" xlink:href="#DejaVuSans-48"/>
      </g>
     </g>
    </g>
    <g id="ytick_3">
     <g id="line2d_9">
      <g>
       <use style="stroke:#000000;stroke-width:0.8;" x="57.6" xlink:href="#mc748952bef" y="198.72"/>
      </g>
     </g>
     <g id="text_10">
      <!-- 30 -->
      <g style="fill:#0000ff;" transform="translate(37.875 202.519219)scale(0.1 -0.1)">
       <use xlink:href="#DejaVuSans-51"/>
       <use x="63.623047" xlink:href="#DejaVuSans-48"/>
      </g>
     </g>
    </g>
    <g id="ytick_4">
     <g id="line2d_10">
      <g>
       <use style="stroke:#000000;stroke-width:0.8;" x="57.6" xlink:href="#mc748952bef" y="150.336"/>
      </g>
     </g>
     <g id="text_11">
      <!-- 40 -->
      <g style="fill:#0000ff;" transform="translate(37.875 154.135219)scale(0.1 -0.1)">
       <use xlink:href="#DejaVuSans-52"/>
       <use x="63.623047" xlink:href="#DejaVuSans-48"/>
      </g>
     </g>
    </g>
    <g id="ytick_5">
     <g id="line2d_11">
      <g>
       <use style="stroke:#000000;stroke-width:0.8;" x="57.6" xlink:href="#mc748952bef" y="101.952"/>
      </g>
     </g>
     <g id="text_12">
      <!-- 50 -->
      <g style="fill:#0000ff;" transform="translate(37.875 105.751219)scale(0.1 -0.1)">
       <use xlink:href="#DejaVuSans-53"/>
       <use x="63.623047" xlink:href="#DejaVuSans-48"/>
      </g>
     </g>
    </g>
    <g id="ytick_6">
     <g id="line2d_12">
      <g>
       <use style="stroke:#000000;stroke-width:0.8;" x="57.6" xlink:href="#mc748952bef" y="53.568"/>
      </g>
     </g>
     <g id="text_13">
      <!-- 60 -->
      <defs>
       <path d="M 33.015625 40.375 
Q 26.375 40.375 22.484375 35.828125 
Q 18.609375 31.296875 18.609375 23.390625 
Q 18.609375 15.53125 22.484375 10.953125 
Q 26.375 6.390625 33.015625 6.390625 
Q 39.65625 6.390625 43.53125 10.953125 
Q 47.40625 15.53125 47.40625 23.390625 
Q 47.40625 31.296875 43.53125 35.828125 
Q 39.65625 40.375 33.015625 40.375 
z
M 52.59375 71.296875 
L 52.59375 62.3125 
Q 48.875 64.0625 45.09375 64.984375 
Q 41.3125 65.921875 37.59375 65.921875 
Q 27.828125 65.921875 22.671875 59.328125 
Q 17.53125 52.734375 16.796875 39.40625 
Q 19.671875 43.65625 24.015625 45.921875 
Q 28.375 48.1875 33.59375 48.1875 
Q 44.578125 48.1875 50.953125 41.515625 
Q 57.328125 34.859375 57.328125 23.390625 
Q 57.328125 12.15625 50.6875 5.359375 
Q 44.046875 -1.421875 33.015625 -1.421875 
Q 20.359375 -1.421875 13.671875 8.265625 
Q 6.984375 17.96875 6.984375 36.375 
Q 6.984375 53.65625 15.1875 63.9375 
Q 23.390625 74.21875 37.203125 74.21875 
Q 40.921875 74.21875 44.703125 73.484375 
Q 48.484375 72.75 52.59375 71.296875 
z
" id="DejaVuSans-54"/>
      </defs>
      <g style="fill:#0000ff;" transform="translate(37.875 57.367219)scale(0.1 -0.1)">
       <use xlink:href="#DejaVuSans-54"/>
       <use x="63.623047" xlink:href="#DejaVuSans-48"/>
      </g>
     </g>
    </g>
    <g id="text_14">
     <!-- Number of Nodes -->
     <defs>
      <path d="M 9.8125 72.90625 
L 23.09375 72.90625 
L 55.421875 11.921875 
L 55.421875 72.90625 
L 64.984375 72.90625 
L 64.984375 0 
L 51.703125 0 
L 19.390625 60.984375 
L 19.390625 0 
L 9.8125 0 
z
" id="DejaVuSans-78"/>
      <path d="M 8.5 21.578125 
L 8.5 54.6875 
L 17.484375 54.6875 
L 17.484375 21.921875 
Q 17.484375 14.15625 20.5 10.265625 
Q 23.53125 6.390625 29.59375 6.390625 
Q 36.859375 6.390625 41.078125 11.03125 
Q 45.3125 15.671875 45.3125 23.6875 
L 45.3125 54.6875 
L 54.296875 54.6875 
L 54.296875 0 
L 45.3125 0 
L 45.3125 8.40625 
Q 42.046875 3.421875 37.71875 1 
Q 33.40625 -1.421875 27.6875 -1.421875 
Q 18.265625 -1.421875 13.375 4.4375 
Q 8.5 10.296875 8.5 21.578125 
z
M 31.109375 56 
z
" id="DejaVuSans-117"/>
      <path d="M 52 44.1875 
Q 55.375 50.25 60.0625 53.125 
Q 64.75 56 71.09375 56 
Q 79.640625 56 84.28125 50.015625 
Q 88.921875 44.046875 88.921875 33.015625 
L 88.921875 0 
L 79.890625 0 
L 79.890625 32.71875 
Q 79.890625 40.578125 77.09375 44.375 
Q 74.3125 48.1875 68.609375 48.1875 
Q 61.625 48.1875 57.5625 43.546875 
Q 53.515625 38.921875 53.515625 30.90625 
L 53.515625 0 
L 44.484375 0 
L 44.484375 32.71875 
Q 44.484375 40.625 41.703125 44.40625 
Q 38.921875 48.1875 33.109375 48.1875 
Q 26.21875 48.1875 22.15625 43.53125 
Q 18.109375 38.875 18.109375 30.90625 
L 18.109375 0 
L 9.078125 0 
L 9.078125 54.6875 
L 18.109375 54.6875 
L 18.109375 46.1875 
Q 21.1875 51.21875 25.484375 53.609375 
Q 29.78125 56 35.6875 56 
Q 41.65625 56 45.828125 52.96875 
Q 50 49.953125 52 44.1875 
z
" id="DejaVuSans-109"/>
      <path d="M 48.6875 27.296875 
Q 48.6875 37.203125 44.609375 42.84375 
Q 40.53125 48.484375 33.40625 48.484375 
Q 26.265625 48.484375 22.1875 42.84375 
Q 18.109375 37.203125 18.109375 27.296875 
Q 18.109375 17.390625 22.1875 11.75 
Q 26.265625 6.109375 33.40625 6.109375 
Q 40.53125 6.109375 44.609375 11.75 
Q 48.6875 17.390625 48.6875 27.296875 
z
M 18.109375 46.390625 
Q 20.953125 51.265625 25.265625 53.625 
Q 29.59375 56 35.59375 56 
Q 45.5625 56 51.78125 48.09375 
Q 58.015625 40.1875 58.015625 27.296875 
Q 58.015625 14.40625 51.78125 6.484375 
Q 45.5625 -1.421875 35.59375 -1.421875 
Q 29.59375 -1.421875 25.265625 0.953125 
Q 20.953125 3.328125 18.109375 8.203125 
L 18.109375 0 
L 9.078125 0 
L 9.078125 75.984375 
L 18.109375 75.984375 
z
" id="DejaVuSans-98"/>
      <path d="M 44.28125 53.078125 
L 44.28125 44.578125 
Q 40.484375 46.53125 36.375 47.5 
Q 32.28125 48.484375 27.875 48.484375 
Q 21.1875 48.484375 17.84375 46.4375 
Q 14.5 44.390625 14.5 40.28125 
Q 14.5 37.15625 16.890625 35.375 
Q 19.28125 33.59375 26.515625 31.984375 
L 29.59375 31.296875 
Q 39.15625 29.25 43.1875 25.515625 
Q 47.21875 21.78125 47.21875 15.09375 
Q 47.21875 7.46875 41.1875 3.015625 
Q 35.15625 -1.421875 24.609375 -1.421875 
Q 20.21875 -1.421875 15.453125 -0.5625 
Q 10.6875 0.296875 5.421875 2 
L 5.421875 11.28125 
Q 10.40625 8.6875 15.234375 7.390625 
Q 20.0625 6.109375 24.8125 6.109375 
Q 31.15625 6.109375 34.5625 8.28125 
Q 37.984375 10.453125 37.984375 14.40625 
Q 37.984375 18.0625 35.515625 20.015625 
Q 33.0625 21.96875 24.703125 23.78125 
L 21.578125 24.515625 
Q 13.234375 26.265625 9.515625 29.90625 
Q 5.8125 33.546875 5.8125 39.890625 
Q 5.8125 47.609375 11.28125 51.796875 
Q 16.75 56 26.8125 56 
Q 31.78125 56 36.171875 55.265625 
Q 40.578125 54.546875 44.28125 53.078125 
z
" id="DejaVuSans-115"/>
     </defs>
     <g style="fill:#0000ff;" transform="translate(31.795312 218.267063)rotate(-90)scale(0.1 -0.1)">
      <use xlink:href="#DejaVuSans-78"/>
      <use x="74.804688" xlink:href="#DejaVuSans-117"/>
      <use x="138.183594" xlink:href="#DejaVuSans-109"/>
      <use x="235.595703" xlink:href="#DejaVuSans-98"/>
      <use x="299.072266" xlink:href="#DejaVuSans-101"/>
      <use x="360.595703" xlink:href="#DejaVuSans-114"/>
      <use x="401.708984" xlink:href="#DejaVuSans-32"/>
      <use x="433.496094" xlink:href="#DejaVuSans-111"/>
      <use x="494.677734" xlink:href="#DejaVuSans-102"/>
      <use x="529.882812" xlink:href="#DejaVuSans-32"/>
      <use x="561.669922" xlink:href="#DejaVuSans-78"/>
      <use x="636.474609" xlink:href="#DejaVuSans-111"/>
      <use x="697.65625" xlink:href="#DejaVuSans-100"/>
      <use x="761.132812" xlink:href="#DejaVuSans-101"/>
      <use x="822.65625" xlink:href="#DejaVuSans-115"/>
     </g>
    </g>
   </g>
   <g id="line2d_13">
    <path clip-path="url(#p53456fd27d)" d="M 73.832727 295.488 
L 80.325818 290.6496 
L 86.818909 285.8112 
L 93.312 280.9728 
L 99.805091 276.1344 
L 106.298182 271.296 
L 112.791273 266.4576 
L 119.284364 261.6192 
L 125.777455 256.7808 
L 132.270545 251.9424 
L 138.763636 247.104 
L 145.256727 242.2656 
L 151.749818 237.4272 
L 158.242909 232.5888 
L 164.736 227.7504 
L 171.229091 222.912 
L 177.722182 218.0736 
L 184.215273 213.2352 
L 190.708364 208.3968 
L 197.201455 203.5584 
L 203.694545 198.72 
L 210.187636 193.8816 
L 216.680727 189.0432 
L 223.173818 184.2048 
L 229.666909 179.3664 
L 236.16 174.528 
L 242.653091 169.6896 
L 249.146182 164.8512 
L 255.639273 160.0128 
L 262.132364 155.1744 
L 268.625455 150.336 
L 275.118545 145.4976 
L 281.611636 140.6592 
L 288.104727 135.8208 
L 294.597818 130.9824 
L 301.090909 126.144 
L 307.584 121.3056 
L 314.077091 116.4672 
L 320.570182 111.6288 
L 327.063273 106.7904 
L 333.556364 101.952 
L 340.049455 97.1136 
L 346.542545 92.2752 
L 353.035636 87.4368 
L 359.528727 82.5984 
L 366.021818 77.76 
L 372.514909 72.9216 
L 379.008 68.0832 
L 385.501091 63.2448 
L 391.994182 58.4064 
L 398.487273 53.568 
" style="fill:none;stroke:#0000ff;stroke-linecap:square;stroke-width:1.5;"/>
    <defs>
     <path d="M 0 0.5 
C 0.132602 0.5 0.25979 0.447317 0.353553 0.353553 
C 0.447317 0.25979 0.5 0.132602 0.5 0 
C 0.5 -0.132602 0.447317 -0.25979 0.353553 -0.353553 
C 0.25979 -0.447317 0.132602 -0.5 0 -0.5 
C -0.132602 -0.5 -0.25979 -0.447317 -0.353553 -0.353553 
C -0.447317 -0.25979 -0.5 -0.132602 -0.5 0 
C -0.5 0.132602 -0.447317 0.25979 -0.353553 0.353553 
C -0.25979 0.447317 -0.132602 0.5 0 0.5 
z
" id="m2fa80115bb" style="stroke:#0000ff;"/>
    </defs>
    <g clip-path="url(#p53456fd27d)">
     <use style="fill:#0000ff;stroke:#0000ff;" x="73.832727" xlink:href="#m2fa80115bb" y="295.488"/>
     <use style="fill:#0000ff;stroke:#0000ff;" x="80.325818" xlink:href="#m2fa80115bb" y="290.6496"/>
     <use style="fill:#0000ff;stroke:#0000ff;" x="86.818909" xlink:href="#m2fa80115bb" y="285.8112"/>
     <use style="fill:#0000ff;stroke:#0000ff;" x="93.312" xlink:href="#m2fa80115bb" y="280.9728"/>
     <use style="fill:#0000ff;stroke:#0000ff;" x="99.805091" xlink:href="#m2fa80115bb" y="276.1344"/>
     <use style="fill:#0000ff;stroke:#0000ff;" x="106.298182" xlink:href="#m2fa80115bb" y="271.296"/>
     <use style="fill:#0000ff;stroke:#0000ff;" x="112.791273" xlink:href="#m2fa80115bb" y="266.4576"/>
     <use style="fill:#0000ff;stroke:#0000ff;" x="119.284364" xlink:href="#m2fa80115bb" y="261.6192"/>
     <use style="fill:#0000ff;stroke:#0000ff;" x="125.777455" xlink:href="#m2fa80115bb" y="256.7808"/>
     <use style="fill:#0000ff;stroke:#0000ff;" x="132.270545" xlink:href="#m2fa80115bb" y="251.9424"/>
     <use style="fill:#0000ff;stroke:#0000ff;" x="138.763636" xlink:href="#m2fa80115bb" y="247.104"/>
     <use style="fill:#0000ff;stroke:#0000ff;" x="145.256727" xlink:href="#m2fa80115bb" y="242.2656"/>
     <use style="fill:#0000ff;stroke:#0000ff;" x="151.749818" xlink:href="#m2fa80115bb" y="237.4272"/>
     <use style="fill:#0000ff;stroke:#0000ff;" x="158.242909" xlink:href="#m2fa80115bb" y="232.5888"/>
     <use style="fill:#0000ff;stroke:#0000ff;" x="164.736" xlink:href="#m2fa80115bb" y="227.7504"/>
     <use style="fill:#0000ff;stroke:#0000ff;" x="171.229091" xlink:href="#m2fa80115bb" y="222.912"/>
     <use style="fill:#0000ff;stroke:#0000ff;" x="177.722182" xlink:href="#m2fa80115bb" y="218.0736"/>
     <use style="fill:#0000ff;stroke:#0000ff;" x="184.215273" xlink:href="#m2fa80115bb" y="213.2352"/>
     <use style="fill:#0000ff;stroke:#0000ff;" x="190.708364" xlink:href="#m2fa80115bb" y="208.3968"/>
     <use style="fill:#0000ff;stroke:#0000ff;" x="197.201455" xlink:href="#m2fa80115bb" y="203.5584"/>
     <use style="fill:#0000ff;stroke:#0000ff;" x="203.694545" xlink:href="#m2fa80115bb" y="198.72"/>
     <use style="fill:#0000ff;stroke:#0000ff;" x="210.187636" xlink:href="#m2fa80115bb" y="193.8816"/>
     <use style="fill:#0000ff;stroke:#0000ff;" x="216.680727" xlink:href="#m2fa80115bb" y="189.0432"/>
     <use style="fill:#0000ff;stroke:#0000ff;" x="223.173818" xlink:href="#m2fa80115bb" y="184.2048"/>
     <use style="fill:#0000ff;stroke:#0000ff;" x="229.666909" xlink:href="#m2fa80115bb" y="179.3664"/>
     <use style="fill:#0000ff;stroke:#0000ff;" x="236.16" xlink:href="#m2fa80115bb" y="174.528"/>
     <use style="fill:#0000ff;stroke:#0000ff;" x="242.653091" xlink:href="#m2fa80115bb" y="169.6896"/>
     <use style="fill:#0000ff;stroke:#0000ff;" x="249.146182" xlink:href="#m2fa80115bb" y="164.8512"/>
     <use style="fill:#0000ff;stroke:#0000ff;" x="255.639273" xlink:href="#m2fa80115bb" y="160.0128"/>
     <use style="fill:#0000ff;stroke:#0000ff;" x="262.132364" xlink:href="#m2fa80115bb" y="155.1744"/>
     <use style="fill:#0000ff;stroke:#0000ff;" x="268.625455" xlink:href="#m2fa80115bb" y="150.336"/>
     <use style="fill:#0000ff;stroke:#0000ff;" x="275.118545" xlink:href="#m2fa80115bb" y="145.4976"/>
     <use style="fill:#0000ff;stroke:#0000ff;" x="281.611636" xlink:href="#m2fa80115bb" y="140.6592"/>
     <use style="fill:#0000ff;stroke:#0000ff;" x="288.104727" xlink:href="#m2fa80115bb" y="135.8208"/>
     <use style="fill:#0000ff;stroke:#0000ff;" x="294.597818" xlink:href="#m2fa80115bb" y="130.9824"/>
     <use style="fill:#0000ff;stroke:#0000ff;" x="301.090909" xlink:href="#m2fa80115bb" y="126.144"/>
     <use style="fill:#0000ff;stroke:#0000ff;" x="307.584" xlink:href="#m2fa80115bb" y="121.3056"/>
     <use style="fill:#0000ff;stroke:#0000ff;" x="314.077091" xlink:href="#m2fa80115bb" y="116.4672"/>
     <use style="fill:#0000ff;stroke:#0000ff;" x="320.570182" xlink:href="#m2fa80115bb" y="111.6288"/>
     <use style="fill:#0000ff;stroke:#0000ff;" x="327.063273" xlink:href="#m2fa80115bb" y="106.7904"/>
     <use style="fill:#0000ff;stroke:#0000ff;" x="333.556364" xlink:href="#m2fa80115bb" y="101.952"/>
     <use style="fill:#0000ff;stroke:#0000ff;" x="340.049455" xlink:href="#m2fa80115bb" y="97.1136"/>
     <use style="fill:#0000ff;stroke:#0000ff;" x="346.542545" xlink:href="#m2fa80115bb" y="92.2752"/>
     <use style="fill:#0000ff;stroke:#0000ff;" x="353.035636" xlink:href="#m2fa80115bb" y="87.4368"/>
     <use style="fill:#0000ff;stroke:#0000ff;" x="359.528727" xlink:href="#m2fa80115bb" y="82.5984"/>
     <use style="fill:#0000ff;stroke:#0000ff;" x="366.021818" xlink:href="#m2fa80115bb" y="77.76"/>
     <use style="fill:#0000ff;stroke:#0000ff;" x="372.514909" xlink:href="#m2fa80115bb" y="72.9216"/>
     <use style="fill:#0000ff;stroke:#0000ff;" x="379.008" xlink:href="#m2fa80115bb" y="68.0832"/>
     <use style="fill:#0000ff;stroke:#0000ff;" x="385.501091" xlink:href="#m2fa80115bb" y="63.2448"/>
     <use style="fill:#0000ff;stroke:#0000ff;" x="391.994182" xlink:href="#m2fa80115bb" y="58.4064"/>
     <use style="fill:#0000ff;stroke:#0000ff;" x="398.487273" xlink:href="#m2fa80115bb" y="53.568"/>
    </g>
   </g>
   <g id="patch_3">
    <path d="M 57.6 307.584 
L 57.6 41.472 
" style="fill:none;stroke:#000000;stroke-linecap:square;stroke-linejoin:miter;stroke-width:0.8;"/>
   </g>
   <g id="patch_4">
    <path d="M 414.72 307.584 
L 414.72 41.472 
" style="fill:none;stroke:#000000;stroke-linecap:square;stroke-linejoin:miter;stroke-width:0.8;"/>
   </g>
   <g id="patch_5">
    <path d="M 57.6 307.584 
L 414.72 307.584 
" style="fill:none;stroke:#000000;stroke-linecap:square;stroke-linejoin:miter;stroke-width:0.8;"/>
   </g>
   <g id="patch_6">
    <path d="M 57.6 41.472 
L 414.72 41.472 
" style="fill:none;stroke:#000000;stroke-linecap:square;stroke-linejoin:miter;stroke-width:0.8;"/>
   </g>
  </g>
  <g id="axes_2">
   <g id="matplotlib.axis_3">
    <g id="ytick_7">
     <g id="line2d_14">
      <defs>
       <path d="M 0 0 
L 3.5 0 
" id="m2b61b9464c" style="stroke:#000000;stroke-width:0.8;"/>
      </defs>
      <g>
       <use style="stroke:#000000;stroke-width:0.8;" x="414.72" xlink:href="#m2b61b9464c" y="303.595239"/>
      </g>
     </g>
     <g id="text_15">
      <!-- 0 -->
      <g style="fill:#ff0000;" transform="translate(421.72 307.394457)scale(0.1 -0.1)">
       <use xlink:href="#DejaVuSans-48"/>
      </g>
     </g>
    </g>
    <g id="ytick_8">
     <g id="line2d_15">
      <g>
       <use style="stroke:#000000;stroke-width:0.8;" x="414.72" xlink:href="#m2b61b9464c" y="271.166284"/>
      </g>
     </g>
     <g id="text_16">
      <!-- 100 -->
      <g style="fill:#ff0000;" transform="translate(421.72 274.965503)scale(0.1 -0.1)">
       <use xlink:href="#DejaVuSans-49"/>
       <use x="63.623047" xlink:href="#DejaVuSans-48"/>
       <use x="127.246094" xlink:href="#DejaVuSans-48"/>
      </g>
     </g>
    </g>
    <g id="ytick_9">
     <g id="line2d_16">
      <g>
       <use style="stroke:#000000;stroke-width:0.8;" x="414.72" xlink:href="#m2b61b9464c" y="238.73733"/>
      </g>
     </g>
     <g id="text_17">
      <!-- 200 -->
      <g style="fill:#ff0000;" transform="translate(421.72 242.536549)scale(0.1 -0.1)">
       <use xlink:href="#DejaVuSans-50"/>
       <use x="63.623047" xlink:href="#DejaVuSans-48"/>
       <use x="127.246094" xlink:href="#DejaVuSans-48"/>
      </g>
     </g>
    </g>
    <g id="ytick_10">
     <g id="line2d_17">
      <g>
       <use style="stroke:#000000;stroke-width:0.8;" x="414.72" xlink:href="#m2b61b9464c" y="206.308375"/>
      </g>
     </g>
     <g id="text_18">
      <!-- 300 -->
      <g style="fill:#ff0000;" transform="translate(421.72 210.107594)scale(0.1 -0.1)">
       <use xlink:href="#DejaVuSans-51"/>
       <use x="63.623047" xlink:href="#DejaVuSans-48"/>
       <use x="127.246094" xlink:href="#DejaVuSans-48"/>
      </g>
     </g>
    </g>
    <g id="ytick_11">
     <g id="line2d_18">
      <g>
       <use style="stroke:#000000;stroke-width:0.8;" x="414.72" xlink:href="#m2b61b9464c" y="173.879421"/>
      </g>
     </g>
     <g id="text_19">
      <!-- 400 -->
      <g style="fill:#ff0000;" transform="translate(421.72 177.67864)scale(0.1 -0.1)">
       <use xlink:href="#DejaVuSans-52"/>
       <use x="63.623047" xlink:href="#DejaVuSans-48"/>
       <use x="127.246094" xlink:href="#DejaVuSans-48"/>
      </g>
     </g>
    </g>
    <g id="ytick_12">
     <g id="line2d_19">
      <g>
       <use style="stroke:#000000;stroke-width:0.8;" x="414.72" xlink:href="#m2b61b9464c" y="141.450466"/>
      </g>
     </g>
     <g id="text_20">
      <!-- 500 -->
      <g style="fill:#ff0000;" transform="translate(421.72 145.249685)scale(0.1 -0.1)">
       <use xlink:href="#DejaVuSans-53"/>
       <use x="63.623047" xlink:href="#DejaVuSans-48"/>
       <use x="127.246094" xlink:href="#DejaVuSans-48"/>
      </g>
     </g>
    </g>
    <g id="ytick_13">
     <g id="line2d_20">
      <g>
       <use style="stroke:#000000;stroke-width:0.8;" x="414.72" xlink:href="#m2b61b9464c" y="109.021512"/>
      </g>
     </g>
     <g id="text_21">
      <!-- 600 -->
      <g style="fill:#ff0000;" transform="translate(421.72 112.820731)scale(0.1 -0.1)">
       <use xlink:href="#DejaVuSans-54"/>
       <use x="63.623047" xlink:href="#DejaVuSans-48"/>
       <use x="127.246094" xlink:href="#DejaVuSans-48"/>
      </g>
     </g>
    </g>
    <g id="ytick_14">
     <g id="line2d_21">
      <g>
       <use style="stroke:#000000;stroke-width:0.8;" x="414.72" xlink:href="#m2b61b9464c" y="76.592558"/>
      </g>
     </g>
     <g id="text_22">
      <!-- 700 -->
      <defs>
       <path d="M 8.203125 72.90625 
L 55.078125 72.90625 
L 55.078125 68.703125 
L 28.609375 0 
L 18.3125 0 
L 43.21875 64.59375 
L 8.203125 64.59375 
z
" id="DejaVuSans-55"/>
      </defs>
      <g style="fill:#ff0000;" transform="translate(421.72 80.391776)scale(0.1 -0.1)">
       <use xlink:href="#DejaVuSans-55"/>
       <use x="63.623047" xlink:href="#DejaVuSans-48"/>
       <use x="127.246094" xlink:href="#DejaVuSans-48"/>
      </g>
     </g>
    </g>
    <g id="ytick_15">
     <g id="line2d_22">
      <g>
       <use style="stroke:#000000;stroke-width:0.8;" x="414.72" xlink:href="#m2b61b9464c" y="44.163603"/>
      </g>
     </g>
     <g id="text_23">
      <!-- 800 -->
      <defs>
       <path d="M 31.78125 34.625 
Q 24.75 34.625 20.71875 30.859375 
Q 16.703125 27.09375 16.703125 20.515625 
Q 16.703125 13.921875 20.71875 10.15625 
Q 24.75 6.390625 31.78125 6.390625 
Q 38.8125 6.390625 42.859375 10.171875 
Q 46.921875 13.96875 46.921875 20.515625 
Q 46.921875 27.09375 42.890625 30.859375 
Q 38.875 34.625 31.78125 34.625 
z
M 21.921875 38.8125 
Q 15.578125 40.375 12.03125 44.71875 
Q 8.5 49.078125 8.5 55.328125 
Q 8.5 64.0625 14.71875 69.140625 
Q 20.953125 74.21875 31.78125 74.21875 
Q 42.671875 74.21875 48.875 69.140625 
Q 55.078125 64.0625 55.078125 55.328125 
Q 55.078125 49.078125 51.53125 44.71875 
Q 48 40.375 41.703125 38.8125 
Q 48.828125 37.15625 52.796875 32.3125 
Q 56.78125 27.484375 56.78125 20.515625 
Q 56.78125 9.90625 50.3125 4.234375 
Q 43.84375 -1.421875 31.78125 -1.421875 
Q 19.734375 -1.421875 13.25 4.234375 
Q 6.78125 9.90625 6.78125 20.515625 
Q 6.78125 27.484375 10.78125 32.3125 
Q 14.796875 37.15625 21.921875 38.8125 
z
M 18.3125 54.390625 
Q 18.3125 48.734375 21.84375 45.5625 
Q 25.390625 42.390625 31.78125 42.390625 
Q 38.140625 42.390625 41.71875 45.5625 
Q 45.3125 48.734375 45.3125 54.390625 
Q 45.3125 60.0625 41.71875 63.234375 
Q 38.140625 66.40625 31.78125 66.40625 
Q 25.390625 66.40625 21.84375 63.234375 
Q 18.3125 60.0625 18.3125 54.390625 
z
" id="DejaVuSans-56"/>
      </defs>
      <g style="fill:#ff0000;" transform="translate(421.72 47.962822)scale(0.1 -0.1)">
       <use xlink:href="#DejaVuSans-56"/>
       <use x="63.623047" xlink:href="#DejaVuSans-48"/>
       <use x="127.246094" xlink:href="#DejaVuSans-48"/>
      </g>
     </g>
    </g>
    <g id="text_24">
     <!-- Change in Inversion Number of the Layer1 -->
     <defs>
      <path d="M 9.8125 72.90625 
L 19.671875 72.90625 
L 19.671875 0 
L 9.8125 0 
z
" id="DejaVuSans-73"/>
      <path d="M 2.984375 54.6875 
L 12.5 54.6875 
L 29.59375 8.796875 
L 46.6875 54.6875 
L 56.203125 54.6875 
L 35.6875 0 
L 23.484375 0 
z
" id="DejaVuSans-118"/>
      <path d="M 18.3125 70.21875 
L 18.3125 54.6875 
L 36.8125 54.6875 
L 36.8125 47.703125 
L 18.3125 47.703125 
L 18.3125 18.015625 
Q 18.3125 11.328125 20.140625 9.421875 
Q 21.96875 7.515625 27.59375 7.515625 
L 36.8125 7.515625 
L 36.8125 0 
L 27.59375 0 
Q 17.1875 0 13.234375 3.875 
Q 9.28125 7.765625 9.28125 18.015625 
L 9.28125 47.703125 
L 2.6875 47.703125 
L 2.6875 54.6875 
L 9.28125 54.6875 
L 9.28125 70.21875 
z
" id="DejaVuSans-116"/>
      <path d="M 9.8125 72.90625 
L 19.671875 72.90625 
L 19.671875 8.296875 
L 55.171875 8.296875 
L 55.171875 0 
L 9.8125 0 
z
" id="DejaVuSans-76"/>
      <path d="M 32.171875 -5.078125 
Q 28.375 -14.84375 24.75 -17.8125 
Q 21.140625 -20.796875 15.09375 -20.796875 
L 7.90625 -20.796875 
L 7.90625 -13.28125 
L 13.1875 -13.28125 
Q 16.890625 -13.28125 18.9375 -11.515625 
Q 21 -9.765625 23.484375 -3.21875 
L 25.09375 0.875 
L 2.984375 54.6875 
L 12.5 54.6875 
L 29.59375 11.921875 
L 46.6875 54.6875 
L 56.203125 54.6875 
z
" id="DejaVuSans-121"/>
     </defs>
     <g style="fill:#ff0000;" transform="translate(452.405937 280.954563)rotate(-90)scale(0.1 -0.1)">
      <use xlink:href="#DejaVuSans-67"/>
      <use x="69.824219" xlink:href="#DejaVuSans-104"/>
      <use x="133.203125" xlink:href="#DejaVuSans-97"/>
      <use x="194.482422" xlink:href="#DejaVuSans-110"/>
      <use x="257.861328" xlink:href="#DejaVuSans-103"/>
      <use x="321.337891" xlink:href="#DejaVuSans-101"/>
      <use x="382.861328" xlink:href="#DejaVuSans-32"/>
      <use x="414.648438" xlink:href="#DejaVuSans-105"/>
      <use x="442.431641" xlink:href="#DejaVuSans-110"/>
      <use x="505.810547" xlink:href="#DejaVuSans-32"/>
      <use x="537.597656" xlink:href="#DejaVuSans-73"/>
      <use x="567.089844" xlink:href="#DejaVuSans-110"/>
      <use x="630.46875" xlink:href="#DejaVuSans-118"/>
      <use x="689.648438" xlink:href="#DejaVuSans-101"/>
      <use x="751.171875" xlink:href="#DejaVuSans-114"/>
      <use x="792.285156" xlink:href="#DejaVuSans-115"/>
      <use x="844.384766" xlink:href="#DejaVuSans-105"/>
      <use x="872.167969" xlink:href="#DejaVuSans-111"/>
      <use x="933.349609" xlink:href="#DejaVuSans-110"/>
      <use x="996.728516" xlink:href="#DejaVuSans-32"/>
      <use x="1028.515625" xlink:href="#DejaVuSans-78"/>
      <use x="1103.320312" xlink:href="#DejaVuSans-117"/>
      <use x="1166.699219" xlink:href="#DejaVuSans-109"/>
      <use x="1264.111328" xlink:href="#DejaVuSans-98"/>
      <use x="1327.587891" xlink:href="#DejaVuSans-101"/>
      <use x="1389.111328" xlink:href="#DejaVuSans-114"/>
      <use x="1430.224609" xlink:href="#DejaVuSans-32"/>
      <use x="1462.011719" xlink:href="#DejaVuSans-111"/>
      <use x="1523.193359" xlink:href="#DejaVuSans-102"/>
      <use x="1558.398438" xlink:href="#DejaVuSans-32"/>
      <use x="1590.185547" xlink:href="#DejaVuSans-116"/>
      <use x="1629.394531" xlink:href="#DejaVuSans-104"/>
      <use x="1692.773438" xlink:href="#DejaVuSans-101"/>
      <use x="1754.296875" xlink:href="#DejaVuSans-32"/>
      <use x="1786.083984" xlink:href="#DejaVuSans-76"/>
      <use x="1841.796875" xlink:href="#DejaVuSans-97"/>
      <use x="1903.076172" xlink:href="#DejaVuSans-121"/>
      <use x="1962.255859" xlink:href="#DejaVuSans-101"/>
      <use x="2023.779297" xlink:href="#DejaVuSans-114"/>
      <use x="2064.892578" xlink:href="#DejaVuSans-49"/>
     </g>
    </g>
   </g>
   <g id="line2d_23">
    <path clip-path="url(#p53456fd27d)" d="M 73.832727 295.488 
L 80.325818 289.002209 
L 86.818909 282.192129 
L 93.312 275.382048 
L 99.805091 270.517705 
L 106.298182 264.031914 
L 112.791273 260.464729 
L 119.284364 255.276097 
L 125.777455 252.033201 
L 132.270545 250.736043 
L 138.763636 249.114595 
L 145.256727 244.250252 
L 151.749818 241.331646 
L 158.242909 238.73733 
L 164.736 236.143013 
L 171.229091 233.872987 
L 177.722182 233.872987 
L 184.215273 235.494434 
L 190.708364 223.171432 
L 197.201455 207.281244 
L 203.694545 194.633952 
L 210.187636 190.742477 
L 216.680727 177.446606 
L 223.173818 162.853576 
L 229.666909 157.664944 
L 236.16 151.179153 
L 242.653091 141.774756 
L 249.146182 125.884568 
L 255.639273 118.101619 
L 262.132364 109.021512 
L 268.625455 103.1843 
L 275.118545 95.077062 
L 281.611636 90.212718 
L 288.104727 92.158456 
L 294.597818 88.591271 
L 301.090909 80.159743 
L 307.584 75.943979 
L 314.077091 70.755346 
L 320.570182 71.079635 
L 327.063273 65.242424 
L 333.556364 63.620976 
L 340.049455 65.242424 
L 346.542545 54.540869 
L 353.035636 53.568 
L 359.528727 58.756633 
L 366.021818 56.162316 
L 372.514909 53.568 
L 379.008 55.838027 
L 385.501091 56.810895 
L 391.994182 59.405212 
" style="fill:none;stroke:#ff0000;stroke-linecap:square;stroke-width:1.5;"/>
    <defs>
     <path d="M -0.5 0.5 
L 0.5 -0.5 
M -0.5 -0.5 
L 0.5 0.5 
" id="m29d5ff8e74" style="stroke:#ff0000;"/>
    </defs>
    <g clip-path="url(#p53456fd27d)">
     <use style="fill:#ff0000;stroke:#ff0000;" x="73.832727" xlink:href="#m29d5ff8e74" y="295.488"/>
     <use style="fill:#ff0000;stroke:#ff0000;" x="80.325818" xlink:href="#m29d5ff8e74" y="289.002209"/>
     <use style="fill:#ff0000;stroke:#ff0000;" x="86.818909" xlink:href="#m29d5ff8e74" y="282.192129"/>
     <use style="fill:#ff0000;stroke:#ff0000;" x="93.312" xlink:href="#m29d5ff8e74" y="275.382048"/>
     <use style="fill:#ff0000;stroke:#ff0000;" x="99.805091" xlink:href="#m29d5ff8e74" y="270.517705"/>
     <use style="fill:#ff0000;stroke:#ff0000;" x="106.298182" xlink:href="#m29d5ff8e74" y="264.031914"/>
     <use style="fill:#ff0000;stroke:#ff0000;" x="112.791273" xlink:href="#m29d5ff8e74" y="260.464729"/>
     <use style="fill:#ff0000;stroke:#ff0000;" x="119.284364" xlink:href="#m29d5ff8e74" y="255.276097"/>
     <use style="fill:#ff0000;stroke:#ff0000;" x="125.777455" xlink:href="#m29d5ff8e74" y="252.033201"/>
     <use style="fill:#ff0000;stroke:#ff0000;" x="132.270545" xlink:href="#m29d5ff8e74" y="250.736043"/>
     <use style="fill:#ff0000;stroke:#ff0000;" x="138.763636" xlink:href="#m29d5ff8e74" y="249.114595"/>
     <use style="fill:#ff0000;stroke:#ff0000;" x="145.256727" xlink:href="#m29d5ff8e74" y="244.250252"/>
     <use style="fill:#ff0000;stroke:#ff0000;" x="151.749818" xlink:href="#m29d5ff8e74" y="241.331646"/>
     <use style="fill:#ff0000;stroke:#ff0000;" x="158.242909" xlink:href="#m29d5ff8e74" y="238.73733"/>
     <use style="fill:#ff0000;stroke:#ff0000;" x="164.736" xlink:href="#m29d5ff8e74" y="236.143013"/>
     <use style="fill:#ff0000;stroke:#ff0000;" x="171.229091" xlink:href="#m29d5ff8e74" y="233.872987"/>
     <use style="fill:#ff0000;stroke:#ff0000;" x="177.722182" xlink:href="#m29d5ff8e74" y="233.872987"/>
     <use style="fill:#ff0000;stroke:#ff0000;" x="184.215273" xlink:href="#m29d5ff8e74" y="235.494434"/>
     <use style="fill:#ff0000;stroke:#ff0000;" x="190.708364" xlink:href="#m29d5ff8e74" y="223.171432"/>
     <use style="fill:#ff0000;stroke:#ff0000;" x="197.201455" xlink:href="#m29d5ff8e74" y="207.281244"/>
     <use style="fill:#ff0000;stroke:#ff0000;" x="203.694545" xlink:href="#m29d5ff8e74" y="194.633952"/>
     <use style="fill:#ff0000;stroke:#ff0000;" x="210.187636" xlink:href="#m29d5ff8e74" y="190.742477"/>
     <use style="fill:#ff0000;stroke:#ff0000;" x="216.680727" xlink:href="#m29d5ff8e74" y="177.446606"/>
     <use style="fill:#ff0000;stroke:#ff0000;" x="223.173818" xlink:href="#m29d5ff8e74" y="162.853576"/>
     <use style="fill:#ff0000;stroke:#ff0000;" x="229.666909" xlink:href="#m29d5ff8e74" y="157.664944"/>
     <use style="fill:#ff0000;stroke:#ff0000;" x="236.16" xlink:href="#m29d5ff8e74" y="151.179153"/>
     <use style="fill:#ff0000;stroke:#ff0000;" x="242.653091" xlink:href="#m29d5ff8e74" y="141.774756"/>
     <use style="fill:#ff0000;stroke:#ff0000;" x="249.146182" xlink:href="#m29d5ff8e74" y="125.884568"/>
     <use style="fill:#ff0000;stroke:#ff0000;" x="255.639273" xlink:href="#m29d5ff8e74" y="118.101619"/>
     <use style="fill:#ff0000;stroke:#ff0000;" x="262.132364" xlink:href="#m29d5ff8e74" y="109.021512"/>
     <use style="fill:#ff0000;stroke:#ff0000;" x="268.625455" xlink:href="#m29d5ff8e74" y="103.1843"/>
     <use style="fill:#ff0000;stroke:#ff0000;" x="275.118545" xlink:href="#m29d5ff8e74" y="95.077062"/>
     <use style="fill:#ff0000;stroke:#ff0000;" x="281.611636" xlink:href="#m29d5ff8e74" y="90.212718"/>
     <use style="fill:#ff0000;stroke:#ff0000;" x="288.104727" xlink:href="#m29d5ff8e74" y="92.158456"/>
     <use style="fill:#ff0000;stroke:#ff0000;" x="294.597818" xlink:href="#m29d5ff8e74" y="88.591271"/>
     <use style="fill:#ff0000;stroke:#ff0000;" x="301.090909" xlink:href="#m29d5ff8e74" y="80.159743"/>
     <use style="fill:#ff0000;stroke:#ff0000;" x="307.584" xlink:href="#m29d5ff8e74" y="75.943979"/>
     <use style="fill:#ff0000;stroke:#ff0000;" x="314.077091" xlink:href="#m29d5ff8e74" y="70.755346"/>
     <use style="fill:#ff0000;stroke:#ff0000;" x="320.570182" xlink:href="#m29d5ff8e74" y="71.079635"/>
     <use style="fill:#ff0000;stroke:#ff0000;" x="327.063273" xlink:href="#m29d5ff8e74" y="65.242424"/>
     <use style="fill:#ff0000;stroke:#ff0000;" x="333.556364" xlink:href="#m29d5ff8e74" y="63.620976"/>
     <use style="fill:#ff0000;stroke:#ff0000;" x="340.049455" xlink:href="#m29d5ff8e74" y="65.242424"/>
     <use style="fill:#ff0000;stroke:#ff0000;" x="346.542545" xlink:href="#m29d5ff8e74" y="54.540869"/>
     <use style="fill:#ff0000;stroke:#ff0000;" x="353.035636" xlink:href="#m29d5ff8e74" y="53.568"/>
     <use style="fill:#ff0000;stroke:#ff0000;" x="359.528727" xlink:href="#m29d5ff8e74" y="58.756633"/>
     <use style="fill:#ff0000;stroke:#ff0000;" x="366.021818" xlink:href="#m29d5ff8e74" y="56.162316"/>
     <use style="fill:#ff0000;stroke:#ff0000;" x="372.514909" xlink:href="#m29d5ff8e74" y="53.568"/>
     <use style="fill:#ff0000;stroke:#ff0000;" x="379.008" xlink:href="#m29d5ff8e74" y="55.838027"/>
     <use style="fill:#ff0000;stroke:#ff0000;" x="385.501091" xlink:href="#m29d5ff8e74" y="56.810895"/>
     <use style="fill:#ff0000;stroke:#ff0000;" x="391.994182" xlink:href="#m29d5ff8e74" y="59.405212"/>
    </g>
   </g>
   <g id="patch_7">
    <path d="M 57.6 307.584 
L 57.6 41.472 
" style="fill:none;stroke:#000000;stroke-linecap:square;stroke-linejoin:miter;stroke-width:0.8;"/>
   </g>
   <g id="patch_8">
    <path d="M 414.72 307.584 
L 414.72 41.472 
" style="fill:none;stroke:#000000;stroke-linecap:square;stroke-linejoin:miter;stroke-width:0.8;"/>
   </g>
   <g id="patch_9">
    <path d="M 57.6 307.584 
L 414.72 307.584 
" style="fill:none;stroke:#000000;stroke-linecap:square;stroke-linejoin:miter;stroke-width:0.8;"/>
   </g>
   <g id="patch_10">
    <path d="M 57.6 41.472 
L 414.72 41.472 
" style="fill:none;stroke:#000000;stroke-linecap:square;stroke-linejoin:miter;stroke-width:0.8;"/>
   </g>
   <g id="legend_1">
    <g id="patch_11">
     <path d="M 64.6 78.82825 
L 231.001563 78.82825 
Q 233.001563 78.82825 233.001563 76.82825 
L 233.001563 48.472 
Q 233.001563 46.472 231.001563 46.472 
L 64.6 46.472 
Q 62.6 46.472 62.6 48.472 
L 62.6 76.82825 
Q 62.6 78.82825 64.6 78.82825 
z
" style="fill:#ffffff;opacity:0.8;stroke:#cccccc;stroke-linejoin:miter;"/>
    </g>
    <g id="line2d_24">
     <path d="M 66.6 54.570437 
L 86.6 54.570437 
" style="fill:none;stroke:#0000ff;stroke-linecap:square;stroke-width:1.5;"/>
    </g>
    <g id="line2d_25">
     <g>
      <use style="fill:#0000ff;stroke:#0000ff;" x="76.6" xlink:href="#m2fa80115bb" y="54.570437"/>
     </g>
    </g>
    <g id="text_25">
     <!-- Number of Nodes in layer1 -->
     <defs>
      <path d="M 9.421875 75.984375 
L 18.40625 75.984375 
L 18.40625 0 
L 9.421875 0 
z
" id="DejaVuSans-108"/>
     </defs>
     <g transform="translate(94.6 58.070437)scale(0.1 -0.1)">
      <use xlink:href="#DejaVuSans-78"/>
      <use x="74.804688" xlink:href="#DejaVuSans-117"/>
      <use x="138.183594" xlink:href="#DejaVuSans-109"/>
      <use x="235.595703" xlink:href="#DejaVuSans-98"/>
      <use x="299.072266" xlink:href="#DejaVuSans-101"/>
      <use x="360.595703" xlink:href="#DejaVuSans-114"/>
      <use x="401.708984" xlink:href="#DejaVuSans-32"/>
      <use x="433.496094" xlink:href="#DejaVuSans-111"/>
      <use x="494.677734" xlink:href="#DejaVuSans-102"/>
      <use x="529.882812" xlink:href="#DejaVuSans-32"/>
      <use x="561.669922" xlink:href="#DejaVuSans-78"/>
      <use x="636.474609" xlink:href="#DejaVuSans-111"/>
      <use x="697.65625" xlink:href="#DejaVuSans-100"/>
      <use x="761.132812" xlink:href="#DejaVuSans-101"/>
      <use x="822.65625" xlink:href="#DejaVuSans-115"/>
      <use x="874.755859" xlink:href="#DejaVuSans-32"/>
      <use x="906.542969" xlink:href="#DejaVuSans-105"/>
      <use x="934.326172" xlink:href="#DejaVuSans-110"/>
      <use x="997.705078" xlink:href="#DejaVuSans-32"/>
      <use x="1029.492188" xlink:href="#DejaVuSans-108"/>
      <use x="1057.275391" xlink:href="#DejaVuSans-97"/>
      <use x="1118.554688" xlink:href="#DejaVuSans-121"/>
      <use x="1177.734375" xlink:href="#DejaVuSans-101"/>
      <use x="1239.257812" xlink:href="#DejaVuSans-114"/>
      <use x="1280.371094" xlink:href="#DejaVuSans-49"/>
     </g>
    </g>
    <g id="line2d_26">
     <path d="M 66.6 69.248562 
L 86.6 69.248562 
" style="fill:none;stroke:#ff0000;stroke-linecap:square;stroke-width:1.5;"/>
    </g>
    <g id="line2d_27">
     <g>
      <use style="fill:#ff0000;stroke:#ff0000;" x="76.6" xlink:href="#m29d5ff8e74" y="69.248562"/>
     </g>
    </g>
    <g id="text_26">
     <!-- IO[1][1] -->
     <defs>
      <path d="M 39.40625 66.21875 
Q 28.65625 66.21875 22.328125 58.203125 
Q 16.015625 50.203125 16.015625 36.375 
Q 16.015625 22.609375 22.328125 14.59375 
Q 28.65625 6.59375 39.40625 6.59375 
Q 50.140625 6.59375 56.421875 14.59375 
Q 62.703125 22.609375 62.703125 36.375 
Q 62.703125 50.203125 56.421875 58.203125 
Q 50.140625 66.21875 39.40625 66.21875 
z
M 39.40625 74.21875 
Q 54.734375 74.21875 63.90625 63.9375 
Q 73.09375 53.65625 73.09375 36.375 
Q 73.09375 19.140625 63.90625 8.859375 
Q 54.734375 -1.421875 39.40625 -1.421875 
Q 24.03125 -1.421875 14.8125 8.828125 
Q 5.609375 19.09375 5.609375 36.375 
Q 5.609375 53.65625 14.8125 63.9375 
Q 24.03125 74.21875 39.40625 74.21875 
z
" id="DejaVuSans-79"/>
      <path d="M 8.59375 75.984375 
L 29.296875 75.984375 
L 29.296875 69 
L 17.578125 69 
L 17.578125 -6.203125 
L 29.296875 -6.203125 
L 29.296875 -13.1875 
L 8.59375 -13.1875 
z
" id="DejaVuSans-91"/>
      <path d="M 30.421875 75.984375 
L 30.421875 -13.1875 
L 9.71875 -13.1875 
L 9.71875 -6.203125 
L 21.390625 -6.203125 
L 21.390625 69 
L 9.71875 69 
L 9.71875 75.984375 
z
" id="DejaVuSans-93"/>
     </defs>
     <g transform="translate(94.6 72.748562)scale(0.1 -0.1)">
      <use xlink:href="#DejaVuSans-73"/>
      <use x="29.492188" xlink:href="#DejaVuSans-79"/>
      <use x="108.203125" xlink:href="#DejaVuSans-91"/>
      <use x="147.216797" xlink:href="#DejaVuSans-49"/>
      <use x="210.839844" xlink:href="#DejaVuSans-93"/>
      <use x="249.853516" xlink:href="#DejaVuSans-91"/>
      <use x="288.867188" xlink:href="#DejaVuSans-49"/>
      <use x="352.490234" xlink:href="#DejaVuSans-93"/>
     </g>
    </g>
   </g>
  </g>
 </g>
 <defs>
  <clipPath id="p53456fd27d">
   <rect height="266.112" width="357.12" x="57.6" y="41.472"/>
  </clipPath>
 </defs>
</svg>
